<?xml version="1.0" encoding="UTF-8"?>
<svg id="_レイヤー_2" data-name="レイヤー_2" xmlns="http://www.w3.org/2000/svg" viewBox="0 0 598.73 799">
  <g id="_レイヤー_1-2" data-name="レイヤー_1">
    <g>
      <g>
        <g>
          <path d="M310.88,246.74c-5.17-3.68-9.72-3.51-15.15-1.76-4.91,1.59-7.8,6.44-9.55,11.21-.96,2.51-1.75,5.27-3.68,7.2-2.37,2.43-7.18,4.1-7.8,7.36-.61,3.35,2.63,5.27,5.78,3.85,6.57-2.93,7.53-5.36,9.11-6.44,2.37-1.59,6.04-1.42,8.5-2.85,2.8-1.76,5.52-5.36,6.39-8.45l6.39-10.04v-.08Z" style="fill: #f0b37b;"/>
          <path d="M305.36,288.41c-.44,5.02-3.68,8.62-6.83,7.03-.88,3.01-6.31,5.44-8.32,1.51-2.54,2.26-6.48-2.59-6.57-6.11-.18-5.27-.35-5.61-.44-7.2-.09-3.68.88-7.53,1.49-9.96.88-3.43,2.1-6.53,4.2-9.46,5.43-7.62,9.64-15.98,18.66-19.33,3.77,1.67,7.36,3.93,9.46,10.96,1.49,5.19-.26,9.12-2.8,13.97-2.54,4.77-3.15,6.61-3.24,11.97-.18,7.28-4.64,8.62-5.52,6.69l-.09-.08Z" style="fill: #f0b37b;"/>
        </g>
        <path d="M330.59,95.44c-5.26,15.98-7.18,47.03-10.25,76.65-16.56,38.16-.44,13.05-25.23,70.13-2.01,10.21,20.59,17.24,25.05,10.21,21.11-31.97,28.29-31.8,45.46-71.72,7.8-26.78,10.07-42.18,16.38-80.17,7.88-44.1-37.75-45.19-51.42-5.19v.08Z" style="fill: #10495b;"/>
        <path d="M347.85,214.69c-.7-31.38.35-62.76,2.8-94.14-4.29,13.05-9.37-9.46-13.67,3.6-1.4,4.18-7.8,72.05-8.67,76.82-1.75,9.65-3.47,19.27-5.17,28.87-.88,4.6-1.75,9.12-2.19,13.72-.35,2.93-.44,5.77-.61,8.62l27.51-37.49Z" style="fill: #1b1d1b; isolation: isolate; opacity: .3;"/>
        <path d="M382.8,520.3l2.45,21.42c3.42,5.86,4.64,14.98,4.91,24.94-3.77,8.7-48.44,28.2-60.35,27.95-22.34,0-21.72-18.74-14.72-23.35,23.74-15.73,30.92-27.45,30.92-27.45l-1.93-23.51h38.72Z" style="fill: #070001;"/>
        <path d="M345.05,285.73l-10.6,98.83c-.53,19.58-1.31,39.58-1.84,58.41-.09,5.1-.26,10.04-.35,14.9,0,2.93-.09,5.77-.18,8.54,0,5.36-.09,10.46-.09,15.31h0c0,19.83.96,35.82,3.5,44.44,3.33,12.05,53.96,11.97,55.8-5.61.7-11.21,1.49-22.34,2.01-33.31.26-4.6.44-9.12.61-13.64.18-3.43.26-6.78.35-10.04.18-4.52.18-8.87.26-13.22.18-21.67-1.14-41.34-5.17-57.07,9.37-31.97,13.75-62.85,13.93-92.97l-58.34-14.64.09.08Z" style="fill: #303030;"/>
        <path d="M403.38,646.91c8.67.17,34.69-10.21,49.76-19.08,5.61-3.43,9.64-6.53,10.69-8.87-.26-10.04-1.49-19.08-4.91-24.94l-1.84-16.23-.61-5.27h-38.72l.88,10.71,1.05,12.8s-7.18,11.72-30.92,27.53c-7.01,4.69-7.62,23.35,14.72,23.35h-.09Z" style="fill: #070001;"/>
        <path d="M342.86,301.88c2.8,18.49,17.08,27.87,35.39,33.72l15.59,101.51c1.49,19.5,2.98,39.5,4.38,58.24.44,5.1.88,10.04,1.23,14.9.26,2.93.53,5.69.79,8.54.44,5.27,1.05,10.38,1.49,15.23,1.14,9.87,2.28,18.74,3.68,26.19,1.4,7.45,2.89,13.47,4.64,17.66.96,2.51,4.12,4.27,8.41,5.27,7.97,1.92,19.97,1.17,29.78-1.84,3.24-.92,6.22-2.18,8.67-3.6,4.91-2.85,8.06-6.44,8.06-10.88-.44-11.21-.96-22.34-1.49-33.39-.26-4.6-.53-9.12-.88-13.56-.18-3.43-.44-6.78-.7-10.04-.35-4.52-.7-8.95-1.23-13.22-2.19-21.59-5.52-41-11.21-56.23,5.87-32.64,3.15-67.78,0-97.74,5.43-15.9,7.8-36.57,2.54-59.67l-1.58-.42-17.78-4.27-87.07-20.84-1.75-.42c-.7,14.73-.18,27.78-1.05,44.77l.09.08Z" style="fill: #3c3c3b;"/>
        <path d="M453.93,279.29s.26,10.04,0,13.72c-21.99,18.16-104.24-4.94-110.55-26.61.18-4.52-.61-8.87,0-14.81,20.85,27.2,84.97,41.42,110.46,27.7h.09Z" style="fill: #070001;"/>
        <polygon points="367.65 282.14 382.01 287.58 382.01 279.12 367.65 273.68 367.65 282.14" style="fill: #efe584;"/>
        <path d="M341.37,246.15c0,4.1,1.58,7.95,4.2,11.46,13.58,17.82,56.06,28.37,83.13,28.79,4.64.17,8.85-.08,12.35-.67,4.03-.67,7.01-1.59,9.37-3.01,6.57-4.02,7.8-11.63,9.64-24.77,1.58-13.97,2.98-26.86,4.12-38.66,5.17-54.64,5.52-85.86,4.2-97.66-12.26-13.89-33.64-28.37-51.42-39.25-24.09-10.38-45.64-16.74-58.43-15.4-34.78,3.93-17.26,179.08-17.26,179.08l.09.08Z" style="fill: #10495b;"/>
        <path d="M427.82,423.31c-.44,3.6-.96,7.2-.7,10.8.44,5.27,2.54,10.21,4.64,15.06,10.42,24.52,20.41,49.96,20.06,76.32-.18,9.29-1.49,18.58-2.37,27.78-.61,6.44-1.05,12.8-1.23,19.25v8.87c.18,15.56,1.75,31.13,4.82,46.44,5.61-3.43,9.64-6.53,10.69-8.87-.26-10.04-1.49-19.08-4.91-24.94l-1.84-16.23c4.91-2.85,8.06-6.44,8.06-10.88-.44-11.21-.96-22.34-1.49-33.39-.26-4.6-.53-9.12-.88-13.56-.18-3.43-.44-6.78-.7-10.04-.35-4.52-.7-8.95-1.23-13.22-2.19-21.59-5.52-41-11.21-56.23,5.87-32.64,3.15-67.78,0-97.74,5.43-15.9,7.8-36.57,2.54-59.67l-1.58-.42c6.57-4.02,7.8-11.63,9.64-24.77,1.58-13.97,2.98-26.86,4.12-38.66-.44-1.42-.88-2.76-1.31-4.18-6.75-21.09-20.76-49.46-27.51-70.54-1.4,24.85,5.17,60.17,5.17,85.11,0,15.15-.96,32.47-7.88,48.79-1.05,2.68-2.37,5.36-3.94,7.95-1.75,3.43-4.03,6.69-6.57,9.96,6.22,7.95,7.62,18.49,8.41,28.37,2.72,32.8,1.75,65.94-2.8,98.58v.08Z" style="fill: #1b1d1b; isolation: isolate; opacity: .3;"/>
        <path d="M493.08,337.37c0,2.59,0,5.19-.88,7.62-.7,1.76-1.84,3.26-2.89,4.69-2.89,3.85-5.69,7.7-8.58,11.55-.88,1.17-1.75,2.34-2.8,3.35-2.37,2.34-5.52,4.02-8.85,4.6-1.05.17-2.19.25-2.98-.42-.44-.33-.7-.75-.88-1.26-.88-2.26.53-4.69,1.49-6.95,1.75-4.18,1.93-8.79,1.75-13.31-.26-4.52-.88-8.95-.88-13.47.35,3.26.44,6.69-.79,9.79s-3.94,5.86-7.36,6.19c-.35,0-.7,0-.96-.08s-.35-.33-.53-.59c-1.05-1.59-1.31-3.6-.7-5.36.44-1.34,1.31-2.51,1.75-3.85.53-1.67.35-3.43.26-5.19-.18-7.2,2.72-14.48,7.71-19.83.96-1,2.01-2.01,3.24-2.76,2.89-1.76,6.48-2.18,9.9-2.18.79,0,1.58,0,2.28.25.53.17,1.05.59,1.49.92,3.85,3.01,6.22,7.45,7.53,11.97,1.31,4.6,1.58,9.37,1.66,14.06v.25Z" style="fill: #f0b37b;"/>
        <path d="M434.39,163.14c2.01,16.65,13.58,45.69,23.39,73.98,1.23,41.34,5.34,14.39,7.1,76.15,4.12,8.79,25.93,7.7,28.64,2.76,5.61-37.41,10.69-45.61,9.29-88.79-4.29-27.53-10.07-46.69-20.5-83.85-11.65-43.35-52.65-22.18-48,19.67l.09.08Z" style="fill: #10495b;"/>
        <path d="M487.3,196.7c1.49-3.43,1.75-7.53.61-10.96l-5.08-16.15c-2.19,2.51-4.64,4.69-7.18,6.36-2.63,1.67-5.43,2.93-8.41,3.68l5.17,16.23c1.05,3.43,3.42,5.94,6.22,6.61l5.69,1.34,3.07-7.03-.09-.08Z" style="fill: #efe584;"/>
        <path d="M428.61,89.75c.88,1.59.26,3.35-.26,5.27-1.58,5.61-4.82,8.95-9.46,12.64-7.18,5.61-16.03,10.46-23.65,15.48-4.2-7.7-6.39-12.72-9.02-20.08-4.03,3.6-10.86,8.28-14.98,11.88-.79-6.11,1.75-14.06,3.15-20.08,1.31-6.03,4.64-11.88,10.07-15.23,4.73-2.93,10.51-3.85,16.12-3.51,4.03.25,15.15-4.69,19.71,2.26,1.84,2.85,6.66,8.54,8.32,11.46v-.08Z" style="fill: #0b3c4d;"/>
        <g>
          <path d="M358.71,33.01c-.09,13.47,1.05,26.95,3.68,40.17.7,3.85,1.66,7.7,4.12,10.88.44.5.88,1,1.31,1.34,2.45,2.26,5.96,3.51,10.34,2.85h.09c.09,1.92.61,6.69.61,8.03.26,1.42.88,2.51,1.66,3.43.44.5.96,1,1.49,1.34,6.22,4.35,19.53,1.17,27.77-2.59,4.38-2.01,9.9-5.02,10.42-10.8.18-2.01.18-16.82.61-18.74,2.01-8.87,3.5-7.03,5.61-21.42,1.05-7.45,2.01-17.66-.61-24.77-2.72-7.62-5.52-13.31-12-17.57-9.46-6.19-21.64-6.19-32.67-3.18-5.69,1.51-11.39,3.6-15.42,7.62-5.96,6.03-6.83,15.06-6.92,23.35l-.09.08Z" style="fill: #f0b37b;"/>
          <path d="M378.24,88.24c0,1.76.61,6.61.61,8.03.44,2.18,1.58,3.77,3.15,4.77.7,0,1.49,0,2.19-.08,7.1-.84,13.84-4.27,18.4-9.46,4.56-5.19,7.1-12.13,6.66-18.91-5.61,7.53-14.28,12.8-23.74,14.48-2.63.5-4.64.75-7.27,1.17Z" style="fill: #1b1d1b; isolation: isolate; opacity: .15;"/>
        </g>
        <polygon points="342.07 143.39 363 153.85 362.74 145.9 341.8 135.36 342.07 143.39" style="fill: #fff;"/>
        <path d="M377.37,127.41c0,1.67,1.31,3.6,2.89,4.35,1.49.75,2.72,0,2.63-1.59,0-1.67-1.31-3.6-2.89-4.35-1.49-.75-2.72,0-2.63,1.59Z" style="fill: #0b3c4d;"/>
        <path d="M375.44,172.01c0,1.67,1.31,3.6,2.89,4.35,1.49.75,2.72,0,2.63-1.59,0-1.67-1.31-3.6-2.89-4.35-1.49-.75-2.72,0-2.63,1.59Z" style="fill: #0b3c4d;"/>
        <path d="M373.51,216.53c0,1.67,1.31,3.6,2.89,4.35,1.49.75,2.72,0,2.63-1.59,0-1.67-1.31-3.6-2.89-4.35-1.49-.75-2.72,0-2.63,1.59Z" style="fill: #0b3c4d;"/>
        <path d="M371.59,261.13c0,1.67,1.31,3.6,2.89,4.35,1.49.75,2.72,0,2.63-1.59,0-1.67-1.31-3.6-2.89-4.35-1.49-.75-2.72,0-2.63,1.59Z" style="fill: #0b3c4d;"/>
        <g>
          <g>
            <polygon points="396.73 306.65 396.73 272.68 414.42 282.47 414.42 316.36 396.73 306.65" style="fill: #3c3c3b;"/>
            <polygon points="396.73 272.68 403.56 269.16 421.34 278.96 414.42 282.47 396.73 272.68" style="fill: #3c3c3b;"/>
            <polygon points="414.42 316.36 421.34 312.93 421.34 278.96 414.42 282.47 414.42 316.36" style="fill: #070001;"/>
          </g>
          <path d="M402.42,255.11c1.14-.67,1.4-.67,2.54,0,.61.33.88.75.88,1.17l.79,16.49s-.26.84-.88,1.17c-1.14.67-2.98.67-4.12,0-.53-.33-.88-.75-.88-1.17h0l.79-16.49s.26-.84.88-1.17h0Z" style="fill: #070001;"/>
          <path d="M399.18,284.73c0,3.93,2.89,8.7,6.48,10.71,3.59,2.01,6.48.33,6.48-3.6s-2.89-8.7-6.48-10.71c-3.59-2.01-6.48-.33-6.48,3.6Z" style="fill: #070001;"/>
          <g>
            <path d="M400.41,295.94c0,.59.44,1.17.88,1.51l8.67,4.77c.53.25.88,0,.88-.5h0c0-.5-.44-1.17-.88-1.51l-8.67-4.77c-.53-.25-.88,0-.88.5h0Z" style="fill: #070001;"/>
            <path d="M400.41,299.88c0,.5.44,1.17.88,1.51l8.67,4.77c.53.25.88,0,.88-.5h0c0-.59-.44-1.17-.88-1.51l-8.67-4.77c-.53-.25-.88,0-.88.5h0Z" style="fill: #070001;"/>
            <path d="M400.41,303.81c0,.59.44,1.17.88,1.51l8.67,4.77c.53.25.88,0,.88-.5h0c0-.59-.44-1.17-.88-1.51l-8.67-4.77c-.53-.25-.88,0-.88.5h0Z" style="fill: #070001;"/>
          </g>
        </g>
      </g>
      <g>
        <polygon points="185.71 317.87 398.3 378.29 584.19 339.96 584.19 632.76 384.99 683.81 385.6 666.66 185.71 610.67 185.71 317.87" style="fill: #177784;"/>
        <path d="M449.46,635.53l50.46-27.78c15.15-8.37,39.77-8.37,54.92,0l18.04,9.96c7.62,4.18,11.39,9.62,11.39,15.15s-3.77,10.96-11.39,15.15l-67.27,37.16c-55.54,30.63-145.59,30.63-201.12,0l-107.39-59.25c-7.62-4.18-11.39-9.62-11.39-15.15s3.77-10.96,11.39-15.15l18.04-9.96c15.15-8.37,39.77-21.51,54.92-13.14l90.49,63.01c24.61,13.56,64.38,13.56,89,0h-.09Z" style="fill: #177784;"/>
        <path d="M449.46,342.72l50.46-27.78c15.15-8.37,39.77-8.37,54.92,0l18.04,9.96c7.62,4.18,11.39,9.62,11.39,15.15s-3.77,10.96-11.39,15.15l-67.27,37.15c-55.54,30.63-145.59,30.63-201.12,0l-107.39-59.25c-7.62-4.18-11.39-9.62-11.39-15.15s3.77-10.96,11.39-15.15l18.04-9.96c15.15-8.37,39.77-8.37,54.92,0l90.49,49.87c24.61,13.56,64.38,13.56,89,0h-.09Z" style="fill: #e16a3b;"/>
        <path d="M404.96,429.17c40.47,0,78.75-8.79,107.83-24.85l67.27-37.15c11.83-6.53,18.66-16.49,18.66-27.2s-6.83-20.67-18.66-27.2l-18.04-9.96c-9.55-5.27-21.81-8.12-34.78-8.12s-25.23,2.93-34.78,8.12l-50.46,27.78c-9.55,5.27-23.13,8.28-37.23,8.28s-27.68-3.01-37.23-8.28l-90.49-49.87c-9.55-5.27-21.81-8.12-34.78-8.12s-25.23,2.93-34.78,8.12l-18.04,9.96c-11.83,6.53-18.66,16.49-18.66,27.2s6.83,20.67,18.66,27.2l107.39,59.25c28.99,15.98,67.36,24.85,107.83,24.85h.26Z" style="fill: #3c3c3b;"/>
        <path d="M404.96,418.62c40.47,0,78.75-8.79,107.83-24.85l67.27-37.15c11.83-6.53,18.66-16.49,18.66-27.2s-6.83-20.67-18.66-27.2l-18.04-9.96c-9.55-5.27-21.81-8.12-34.78-8.12s-25.23,2.93-34.78,8.12l-50.46,27.78c-9.55,5.27-23.13,8.28-37.23,8.28s-27.68-3.01-37.23-8.28l-90.49-49.87c-9.55-5.27-21.81-8.12-34.78-8.12s-25.23,2.93-34.78,8.12l-18.04,9.96c-11.83,6.53-18.66,16.49-18.66,27.2s6.83,20.67,18.66,27.2l107.39,59.25c28.99,15.98,67.36,24.85,107.83,24.85h.26Z" style="fill: #9f9d9c;"/>
      </g>
      <g>
        <g>
          <rect x="79.71" y="758.62" width="88.65" height="15.9" style="fill: #9f9d9c;"/>
          <path d="M92.68,757.28c-17.34,9.54-17.34,25.02,0,34.56,17.34,9.54,45.38,9.54,62.63,0,17.34-9.54,17.34-25.02,0-34.56-17.34-9.54-45.38-9.54-62.63,0Z" style="fill: #9f9d9c;"/>
          <path d="M92.68,741.38c-17.34,9.54-17.34,25.02,0,34.56s45.38,9.54,62.63,0c17.34-9.54,17.34-25.02,0-34.56-17.34-9.54-45.38-9.54-62.63,0Z" style="fill: #424241;"/>
        </g>
        <g>
          <path d="M126.67,695.28l-9.9-16.32,77.17-42.59c16.03-8.87,29.61-31.3,29.61-49.04v-159.41c0-6.61-1.93-11.38-5.17-13.22-3.33-1.84-8.58-1-14.63,2.34l-77.17,42.59-9.9-16.32,77.17-42.59c12.26-6.78,24.79-7.62,34.34-2.34s15.07,16.07,15.07,29.54v159.41c0,24.44-17.34,53.14-39.51,65.36l-77.17,42.59h.09Z" style="fill: #b2b2b2;"/>
          <path d="M214.35,743.64h0c-6.57,0-13.4-1.92-20.41-5.77l-154.43-85.19c-22.16-12.22-39.51-40.92-39.51-65.36v-159.41c0-22.76,14.54-32.97,28.99-32.97,6.57,0,13.4,1.92,20.41,5.77l154.43,85.19c22.16,12.22,39.51,40.92,39.51,65.36v159.41c0,9.37-2.54,17.41-7.45,23.26-5.26,6.28-12.88,9.71-21.55,9.71h0ZM29.08,413.85c-8.06,0-9.29,8.87-9.29,14.14v159.41c0,17.74,13.58,40.17,29.61,49.04l154.43,85.19c7.27,4.02,13.4,4.44,16.64.59,2.01-2.43,3.15-6.53,3.15-11.55v-159.41c0-17.74-13.58-40.17-29.61-49.04l-154.43-85.19c-3.85-2.09-7.45-3.26-10.51-3.26v.08Z" style="fill: #716f6f;"/>
          <path d="M123.95,766.41c-5.43,0-9.9-4.18-9.9-9.46v-362.01c0-5.19,4.38-9.46,9.9-9.46s9.9,4.18,9.9,9.46v362.01c0,5.19-4.38,9.46-9.9,9.46Z" style="fill: #716f6f;"/>
          <path d="M28.99,743.64c-4.99,0-9.72-1.17-13.84-3.43-9.55-5.27-15.07-16.07-15.07-29.54v-159.41c0-24.44,17.34-53.14,39.51-65.36l77.17-42.59c4.73-2.59,10.77-1.09,13.49,3.43,2.72,4.52,1.14,10.29-3.59,12.89l-77.17,42.59c-16.03,8.87-29.61,31.3-29.61,49.04v159.41c0,6.61,1.93,11.38,5.17,13.22,3.33,1.84,8.58,1,14.54-2.34l77.17-42.59c4.73-2.59,10.77-1.09,13.49,3.43,2.72,4.52,1.14,10.29-3.59,12.89l-77.17,42.59c-6.92,3.85-13.93,5.77-20.41,5.77h-.09Z" style="fill: #b2b2b2;"/>
        </g>
      </g>
    </g>
  </g>
</svg>