<?xml version="1.0" encoding="UTF-8"?>
<svg id="_レイヤー_2" data-name="レイヤー_2" xmlns="http://www.w3.org/2000/svg" viewBox="0 0 106.74 105.02">
  <g id="_写真" data-name="写真">
    <g>
      <rect width="106.74" height="105.02" style="fill: #fff;"/>
      <path d="M10.33,22.02v11.86h24.1V10.16H10.33v11.86ZM30.99,22.02v8.47H13.77V13.55h17.22v8.47Z"/>
      <path d="M17.22,22.02v5.08h10.33v-10.16h-10.33v5.08Z"/>
      <path d="M41.32,11.86v1.69h3.44v3.39h-6.89v3.39h3.44v3.39h3.44v3.39h-3.44v3.39h-3.44v6.78h-13.77v3.39h-3.44v-3.39h-10.33v3.39h6.89v6.78h-3.44v-3.39h-3.44v3.39h3.44v10.16h-3.44v3.39h3.44v3.39h-3.44v3.39h3.44v-3.39h3.44v3.39h6.89v-13.55h10.33v-3.39h-3.44v-3.39h3.44v-3.39h-6.89v-3.39h10.33v16.94h3.44v6.78h-3.44v-3.39h-3.44v-3.39h-6.89v10.16h6.89v-3.39h3.44v16.94h3.44v-6.78h6.89v3.39h3.44v3.39h-3.44v6.78h-3.44v-3.39h-6.89v10.16h3.44v-6.78h3.44v6.78h6.89v-3.39h6.89v3.39h10.33v-6.78h-3.44v-6.78h3.44v3.39h3.44v-3.39h3.44v3.39h3.44v6.78h-3.44v-3.39h-3.44v3.39h3.44v3.39h3.44v-3.39h6.89v-3.39h-3.44v-3.39h6.89v-3.39h6.89v-3.39h-6.89v3.39h-3.44v-16.94h-3.44v-3.39h-3.44v-3.39h-3.44v-3.39h3.44v-3.39h-3.44v-3.39h3.44v-3.39h-3.44v-6.78h-6.89v-6.78h-3.44v-3.39h3.44v-3.39h-6.89v-3.39h3.44v-10.16h-13.77v3.39h-6.89v-3.39h-3.44v1.69ZM58.53,20.33v6.78h-3.44v3.39h3.44v3.39h-3.44v-3.39h-3.44v6.78h3.44v6.78h6.89v-3.39h-3.44v-3.39h10.33v3.39h3.44v3.39h-6.89v3.39h-3.44v3.39h6.89v-3.39h3.44v3.39h-3.44v3.39h3.44v3.39h-3.44v3.39h3.44v3.39h-6.89v-3.39h-6.89v-3.39h-3.44v-3.39h6.89v-3.39h-3.44v-3.39h-3.44v3.39h-3.44v3.39h-3.44v6.78h3.44v3.39h6.89v3.39h3.44v6.78h3.44v6.78h-3.44v3.39h-3.44v3.39h-3.44v-3.39h3.44v-3.39h-3.44v-3.39h-3.44v-3.39h-3.44v-3.39h-3.44v-3.39h3.44v3.39h3.44v-6.78h-3.44v-3.39h-3.44v-6.78h-3.44v-6.78h3.44v-3.39h-3.44v-6.78h3.44v6.78h6.89v-6.78h-3.44v-6.78h-3.44v3.39h-3.44v-3.39h3.44v-3.39h3.44v-3.39h3.44v-3.39h-3.44v-3.39h3.44v3.39h3.44v-6.78h3.44v6.78ZM65.42,32.18v1.69h-3.44v-3.39h3.44v1.69ZM24.1,49.12v1.69h-6.89v-3.39h6.89v1.69ZM20.66,60.98v3.39h-3.44v-3.39h-3.44v-3.39h6.89v3.39ZM34.43,62.67v1.69h-3.44v-3.39h3.44v1.69ZM79.19,62.67v1.69h-3.44v-3.39h3.44v1.69ZM79.19,72.84v5.08h-10.33v-10.16h10.33v5.08ZM51.65,89.77v1.69h-3.44v-3.39h3.44v1.69Z"/>
      <path d="M48.2,49.12v1.69h3.44v-3.39h-3.44v1.69Z"/>
      <path d="M65.42,55.9v1.69h3.44v-3.39h-3.44v1.69Z"/>
      <path d="M55.09,72.84v1.69h3.44v-3.39h-3.44v1.69Z"/>
      <path d="M72.31,72.84v1.69h3.44v-3.39h-3.44v1.69Z"/>
      <path d="M72.31,22.02v11.86h24.1V10.16h-24.1v11.86ZM92.96,22.02v8.47h-17.22V13.55h17.22v8.47Z"/>
      <path d="M79.19,22.02v5.08h10.33v-10.16h-10.33v5.08Z"/>
      <path d="M86.08,38.96v1.69h3.44v-3.39h-3.44v1.69Z"/>
      <path d="M92.96,42.35v1.69h-6.89v3.39h3.44v6.78h3.44v3.39h-6.89v-6.78h-3.44v6.78h3.44v3.39h3.44v3.39h3.44v-3.39h3.44v-10.16h-3.44v-3.39h3.44v-6.78h-3.44v1.69Z"/>
      <path d="M89.52,71.14v3.39h6.89v-6.78h-6.89v3.39Z"/>
      <path d="M10.33,83v11.86h24.1v-23.71H10.33v11.86ZM30.99,83v8.47H13.77v-16.94h17.22v8.47Z"/>
      <path d="M17.22,83v5.08h10.33v-10.16h-10.33v5.08Z"/>
      <path d="M92.96,86.39v1.69h-3.44v6.78h6.89v-3.39h-3.44v-3.39h3.44v-3.39h-3.44v1.69Z"/>
    </g>
  </g>
</svg>