<?xml version="1.0" encoding="UTF-8"?>
<svg id="_レイヤー_2" data-name="レイヤー_2" xmlns="http://www.w3.org/2000/svg" viewBox="0 0 579 772.67">
  <g id="_レイヤー_1-2" data-name="レイヤー_1">
    <g>
      <g>
        <g>
          <path d="M300.64,238.61c-5-3.56-9.4-3.4-14.65-1.7-4.74,1.54-7.54,6.23-9.23,10.84-.93,2.43-1.69,5.1-3.56,6.96-2.29,2.35-6.95,3.97-7.54,7.12-.59,3.24,2.54,5.1,5.59,3.72,6.35-2.83,7.29-5.18,8.81-6.23,2.29-1.54,5.85-1.38,8.22-2.75,2.71-1.7,5.34-5.18,6.18-8.17l6.18-9.71v-.08Z" style="fill: #f0b37b;"/>
          <path d="M295.3,278.91c-.42,4.86-3.56,8.34-6.61,6.8-.85,2.91-6.1,5.26-8.05,1.46-2.46,2.18-6.27-2.51-6.35-5.91-.17-5.1-.34-5.42-.42-6.96-.08-3.56.85-7.28,1.44-9.63.85-3.32,2.03-6.31,4.07-9.14,5.25-7.36,9.32-15.46,18.04-18.69,3.64,1.62,7.12,3.8,9.15,10.6,1.44,5.02-.25,8.82-2.71,13.51-2.46,4.61-3.05,6.39-3.13,11.57-.17,7.04-4.49,8.34-5.34,6.47l-.08-.08Z" style="fill: #f0b37b;"/>
        </g>
        <path d="M319.7,92.3c-5.08,15.46-6.95,45.48-9.91,74.13-16.01,36.9-.42,12.62-24.4,67.82-1.95,9.87,19.91,16.67,24.23,9.87,20.42-30.91,27.36-30.75,43.97-69.35,7.54-25.9,9.74-40.79,15.84-77.53,7.62-42.65-36.51-43.7-49.73-5.02v.08Z" style="fill: #10495b;"/>
        <path d="M336.39,207.61c-.68-30.35.34-60.69,2.71-91.04-4.15,12.62-9.06-9.14-13.21,3.48-1.36,4.05-7.54,69.68-8.39,74.29-1.69,9.33-3.36,18.64-5,27.92-.85,4.45-1.69,8.82-2.12,13.27-.34,2.83-.42,5.58-.59,8.34l26.6-36.25Z" style="fill: #1b1d1b; isolation: isolate; opacity: .3;"/>
        <path d="M370.19,503.15l2.37,20.72c3.3,5.66,4.49,14.49,4.74,24.12-3.64,8.42-46.85,27.27-58.37,27.03-21.6,0-21.01-18.13-14.23-22.58,22.96-15.21,29.9-26.54,29.9-26.54l-1.86-22.74h37.44Z" style="fill: #070001;"/>
        <path d="M333.68,276.32l-10.25,95.57c-.51,18.94-1.27,38.28-1.78,56.49-.08,4.94-.25,9.71-.34,14.4,0,2.83-.08,5.58-.17,8.25,0,5.18-.08,10.12-.08,14.81h0c0,19.18.93,34.64,3.39,42.97,3.22,11.65,52.18,11.57,53.96-5.42.68-10.84,1.44-21.61,1.95-32.21.25-4.45.42-8.82.59-13.19.17-3.32.25-6.55.34-9.71.17-4.37.17-8.58.25-12.79.17-20.96-1.1-39.98-5-55.19,9.06-30.91,13.3-60.77,13.47-89.91l-56.42-14.16.08.08Z" style="fill: #303030;"/>
        <path d="M390.09,625.59c8.39.16,33.55-9.87,48.12-18.45,5.42-3.32,9.32-6.31,10.33-8.58-.25-9.71-1.44-18.45-4.74-24.12l-1.78-15.7-.59-5.1h-37.44l.85,10.36,1.02,12.38s-6.95,11.33-29.9,26.62c-6.78,4.53-7.37,22.58,14.23,22.58h-.08Z" style="fill: #070001;"/>
        <path d="M331.56,291.94c2.71,17.88,16.52,26.95,34.22,32.61l15.08,98.16c1.44,18.86,2.88,38.2,4.24,56.32.42,4.94.85,9.71,1.19,14.4.25,2.83.51,5.5.76,8.25.42,5.1,1.02,10.03,1.44,14.73,1.1,9.55,2.2,18.13,3.56,25.33,1.36,7.2,2.8,13.03,4.49,17.08.93,2.43,3.98,4.13,8.13,5.1,7.71,1.86,19.31,1.13,28.8-1.78,3.13-.89,6.01-2.1,8.39-3.48,4.74-2.75,7.79-6.23,7.79-10.52-.42-10.84-.93-21.61-1.44-32.29-.25-4.45-.51-8.82-.85-13.11-.17-3.32-.42-6.55-.68-9.71-.34-4.37-.68-8.66-1.19-12.79-2.12-20.88-5.34-39.65-10.84-54.38,5.68-31.56,3.05-65.55,0-94.52,5.25-15.38,7.54-35.36,2.46-57.7l-1.52-.4-17.2-4.13-84.2-20.15-1.69-.4c-.68,14.24-.17,26.87-1.02,43.3l.08.08Z" style="fill: #3c3c3b;"/>
        <path d="M438.97,270.09s.25,9.71,0,13.27c-21.26,17.56-100.81-4.77-106.91-25.73.17-4.37-.59-8.58,0-14.32,20.16,26.3,82.17,40.06,106.82,26.79h.08Z" style="fill: #070001;"/>
        <polygon points="355.53 272.84 369.42 278.1 369.42 269.93 355.53 264.67 355.53 272.84" style="fill: #efe584;"/>
        <path d="M330.12,238.04c0,3.97,1.52,7.69,4.07,11.09,13.13,17.24,54.22,27.43,80.39,27.84,4.49.16,8.56-.08,11.94-.65,3.9-.65,6.78-1.54,9.06-2.91,6.35-3.88,7.54-11.25,9.32-23.95,1.52-13.51,2.88-25.98,3.98-37.39,5-52.84,5.34-83.03,4.07-94.44-11.86-13.43-32.53-27.43-49.73-37.95-23.3-10.03-44.13-16.19-56.5-14.89-33.63,3.8-16.69,173.18-16.69,173.18l.08.08Z" style="fill: #10495b;"/>
        <path d="M413.73,409.36c-.42,3.48-.93,6.96-.68,10.44.42,5.1,2.46,9.87,4.49,14.57,10.08,23.71,19.74,48.31,19.4,73.8-.17,8.98-1.44,17.97-2.29,26.87-.59,6.23-1.02,12.38-1.19,18.61v8.58c.17,15.05,1.69,30.1,4.66,44.91,5.42-3.32,9.32-6.31,10.33-8.58-.25-9.71-1.44-18.45-4.74-24.12l-1.78-15.7c4.74-2.75,7.79-6.23,7.79-10.52-.42-10.84-.93-21.61-1.44-32.29-.25-4.45-.51-8.82-.85-13.11-.17-3.32-.42-6.55-.68-9.71-.34-4.37-.68-8.66-1.19-12.79-2.12-20.88-5.34-39.65-10.84-54.38,5.68-31.56,3.05-65.55,0-94.52,5.25-15.38,7.54-35.36,2.46-57.7l-1.52-.4c6.35-3.88,7.54-11.25,9.32-23.95,1.52-13.51,2.88-25.98,3.98-37.39-.42-1.38-.85-2.67-1.27-4.05-6.52-20.39-20.08-47.83-26.6-68.22-1.36,24.03,5,58.19,5,82.3,0,14.65-.93,31.4-7.62,47.18-1.02,2.59-2.29,5.18-3.81,7.69-1.69,3.32-3.9,6.47-6.35,9.63,6.01,7.69,7.37,17.88,8.13,27.43,2.63,31.72,1.69,63.77-2.71,95.33v.08Z" style="fill: #1b1d1b; isolation: isolate; opacity: .3;"/>
        <path d="M476.84,326.25c0,2.51,0,5.02-.85,7.36-.68,1.7-1.78,3.16-2.8,4.53-2.8,3.72-5.51,7.45-8.3,11.17-.85,1.13-1.69,2.27-2.71,3.24-2.29,2.27-5.34,3.88-8.56,4.45-1.02.16-2.12.24-2.88-.4-.42-.32-.68-.73-.85-1.21-.85-2.18.51-4.53,1.44-6.72,1.69-4.05,1.86-8.5,1.69-12.87-.25-4.37-.85-8.66-.85-13.03.34,3.16.42,6.47-.76,9.47-1.19,2.99-3.81,5.66-7.12,5.99-.34,0-.68,0-.93-.08s-.34-.32-.51-.57c-1.02-1.54-1.27-3.48-.68-5.18.42-1.29,1.27-2.43,1.69-3.72.51-1.62.34-3.32.25-5.02-.17-6.96,2.63-14,7.45-19.18.93-.97,1.95-1.94,3.13-2.67,2.8-1.7,6.27-2.1,9.57-2.1.76,0,1.52,0,2.2.24.51.16,1.02.57,1.44.89,3.73,2.91,6.01,7.2,7.29,11.57,1.27,4.45,1.52,9.06,1.61,13.6v.24Z" style="fill: #f0b37b;"/>
        <path d="M420.08,157.76c1.95,16.1,13.13,44.19,22.62,71.54,1.19,39.98,5.17,13.92,6.86,73.64,3.98,8.5,25.07,7.45,27.7,2.67,5.42-36.17,10.33-44.1,8.98-85.86-4.15-26.62-9.74-45.16-19.82-81.09-11.27-41.92-50.91-21.45-46.42,19.02l.08.08Z" style="fill: #10495b;"/>
        <path d="M471.25,190.22c1.44-3.32,1.69-7.28.59-10.6l-4.91-15.62c-2.12,2.43-4.49,4.53-6.95,6.15-2.54,1.62-5.25,2.83-8.13,3.56l5,15.7c1.02,3.32,3.3,5.75,6.01,6.39l5.51,1.29,2.96-6.8-.08-.08Z" style="fill: #efe584;"/>
        <path d="M414.49,86.79c.85,1.54.25,3.24-.25,5.1-1.52,5.42-4.66,8.66-9.15,12.22-6.95,5.42-15.5,10.12-22.87,14.97-4.07-7.45-6.18-12.3-8.73-19.42-3.9,3.48-10.5,8.01-14.49,11.49-.76-5.91,1.69-13.6,3.05-19.42,1.27-5.83,4.49-11.49,9.74-14.73,4.57-2.83,10.17-3.72,15.59-3.4,3.9.24,14.65-4.53,19.06,2.18,1.78,2.75,6.44,8.25,8.05,11.09v-.08Z" style="fill: #0b3c4d;"/>
        <g>
          <path d="M346.89,31.93c-.08,13.03,1.02,26.06,3.56,38.84.68,3.72,1.61,7.45,3.98,10.52.42.49.85.97,1.27,1.29,2.37,2.18,5.76,3.4,10,2.75h.08c.08,1.86.59,6.47.59,7.77.25,1.38.85,2.43,1.61,3.32.42.49.93.97,1.44,1.29,6.01,4.21,18.89,1.13,26.85-2.51,4.24-1.94,9.57-4.86,10.08-10.44.17-1.94.17-16.27.59-18.13,1.95-8.58,3.39-6.8,5.42-20.72,1.02-7.2,1.95-17.08-.59-23.95-2.63-7.36-5.34-12.87-11.61-16.99-9.15-5.99-20.92-5.99-31.6-3.08-5.51,1.46-11.01,3.48-14.91,7.36-5.76,5.83-6.61,14.57-6.69,22.58l-.08.08Z" style="fill: #f0b37b;"/>
          <path d="M365.78,85.34c0,1.7.59,6.39.59,7.77.42,2.1,1.52,3.64,3.05,4.61.68,0,1.44,0,2.12-.08,6.86-.81,13.38-4.13,17.79-9.14,4.41-5.02,6.86-11.73,6.44-18.29-5.42,7.28-13.81,12.38-22.96,14-2.54.49-4.49.73-7.03,1.13Z" style="fill: #1b1d1b; isolation: isolate; opacity: .15;"/>
        </g>
        <polygon points="330.8 138.67 351.04 148.78 350.79 141.09 330.54 130.9 330.8 138.67" style="fill: #fff;"/>
        <path d="M364.94,123.21c0,1.62,1.27,3.48,2.8,4.21,1.44.73,2.63,0,2.54-1.54,0-1.62-1.27-3.48-2.8-4.21-1.44-.73-2.63,0-2.54,1.54Z" style="fill: #0b3c4d;"/>
        <path d="M363.07,166.34c0,1.62,1.27,3.48,2.8,4.21,1.44.73,2.63,0,2.54-1.54,0-1.62-1.27-3.48-2.8-4.21-1.44-.73-2.63,0-2.54,1.54Z" style="fill: #0b3c4d;"/>
        <path d="M361.21,209.39c0,1.62,1.27,3.48,2.8,4.21,1.44.73,2.63,0,2.54-1.54,0-1.62-1.27-3.48-2.8-4.21-1.44-.73-2.63,0-2.54,1.54Z" style="fill: #0b3c4d;"/>
        <path d="M359.34,252.53c0,1.62,1.27,3.48,2.8,4.21,1.44.73,2.63,0,2.54-1.54,0-1.62-1.27-3.48-2.8-4.21-1.44-.73-2.63,0-2.54,1.54Z" style="fill: #0b3c4d;"/>
        <g>
          <g>
            <polygon points="383.66 296.55 383.66 263.7 400.77 273.16 400.77 305.94 383.66 296.55" style="fill: #3c3c3b;"/>
            <polygon points="383.66 263.7 390.26 260.3 407.46 269.76 400.77 273.16 383.66 263.7" style="fill: #3c3c3b;"/>
            <polygon points="400.77 305.94 407.46 302.62 407.46 269.76 400.77 273.16 400.77 305.94" style="fill: #070001;"/>
          </g>
          <path d="M389.16,246.7c1.1-.65,1.36-.65,2.46,0,.59.32.85.73.85,1.13l.76,15.94s-.25.81-.85,1.13c-1.1.65-2.88.65-3.98,0-.51-.32-.85-.73-.85-1.13h0l.76-15.94s.25-.81.85-1.13h0Z" style="fill: #070001;"/>
          <path d="M386.03,275.35c0,3.8,2.8,8.42,6.27,10.36,3.47,1.94,6.27.32,6.27-3.48s-2.8-8.42-6.27-10.36c-3.47-1.94-6.27-.32-6.27,3.48Z" style="fill: #070001;"/>
          <g>
            <path d="M387.21,286.19c0,.57.42,1.13.85,1.46l8.39,4.61c.51.24.85,0,.85-.49h0c0-.49-.42-1.13-.85-1.46l-8.39-4.61c-.51-.24-.85,0-.85.49h0Z" style="fill: #070001;"/>
            <path d="M387.21,290c0,.49.42,1.13.85,1.46l8.39,4.61c.51.24.85,0,.85-.49h0c0-.57-.42-1.13-.85-1.46l-8.39-4.61c-.51-.24-.85,0-.85.49h0Z" style="fill: #070001;"/>
            <path d="M387.21,293.8c0,.57.42,1.13.85,1.46l8.39,4.61c.51.24.85,0,.85-.49h0c0-.57-.42-1.13-.85-1.46l-8.39-4.61c-.51-.24-.85,0-.85.49h0Z" style="fill: #070001;"/>
          </g>
        </g>
      </g>
      <g>
        <polygon points="179.59 307.4 385.18 365.82 564.94 328.76 564.94 611.92 372.31 661.28 372.9 644.69 179.59 590.55 179.59 307.4" style="fill: #177784;"/>
        <path d="M434.65,614.59l48.79-26.87c14.65-8.09,38.46-8.09,53.11,0l17.45,9.63c7.37,4.05,11.01,9.31,11.01,14.65s-3.64,10.6-11.01,14.65l-65.06,35.93c-53.71,29.62-140.79,29.62-194.5,0l-103.86-57.3c-7.37-4.05-11.01-9.31-11.01-14.65s3.64-10.6,11.01-14.65l17.45-9.63c14.65-8.09,38.46-20.8,53.11-12.71l87.51,60.94c23.8,13.11,62.26,13.11,86.07,0h-.08Z" style="fill: #177784;"/>
        <path d="M434.65,331.43l48.79-26.87c14.65-8.09,38.46-8.09,53.11,0l17.45,9.63c7.37,4.05,11.01,9.31,11.01,14.65s-3.64,10.6-11.01,14.65l-65.06,35.93c-53.71,29.62-140.79,29.62-194.5,0l-103.86-57.3c-7.37-4.05-11.01-9.31-11.01-14.65s3.64-10.6,11.01-14.65l17.45-9.63c14.65-8.09,38.46-8.09,53.11,0l87.51,48.23c23.8,13.11,62.26,13.11,86.07,0h-.08Z" style="fill: #e16a3b;"/>
        <path d="M391.62,415.03c39.14,0,76.16-8.5,104.28-24.03l65.06-35.93c11.44-6.31,18.04-15.94,18.04-26.3s-6.61-19.99-18.04-26.3l-17.45-9.63c-9.23-5.1-21.09-7.85-33.63-7.85s-24.4,2.83-33.63,7.85l-48.79,26.87c-9.23,5.1-22.36,8.01-36,8.01s-26.77-2.91-36-8.01l-87.51-48.23c-9.23-5.1-21.09-7.85-33.63-7.85s-24.4,2.83-33.63,7.85l-17.45,9.63c-11.44,6.31-18.04,15.94-18.04,26.3s6.61,19.99,18.04,26.3l103.86,57.3c28.04,15.46,65.14,24.03,104.28,24.03h.25Z" style="fill: #3c3c3b;"/>
        <path d="M391.62,404.83c39.14,0,76.16-8.5,104.28-24.03l65.06-35.93c11.44-6.31,18.04-15.94,18.04-26.3s-6.61-19.99-18.04-26.3l-17.45-9.63c-9.23-5.1-21.09-7.85-33.63-7.85s-24.4,2.83-33.63,7.85l-48.79,26.87c-9.23,5.1-22.36,8.01-36,8.01s-26.77-2.91-36-8.01l-87.51-48.23c-9.23-5.1-21.09-7.85-33.63-7.85s-24.4,2.83-33.63,7.85l-17.45,9.63c-11.44,6.31-18.04,15.94-18.04,26.3s6.61,19.99,18.04,26.3l103.86,57.3c28.04,15.46,65.14,24.03,104.28,24.03h.25Z" style="fill: #9f9d9c;"/>
      </g>
      <g>
        <g>
          <rect x="77.09" y="733.63" width="85.73" height="15.38" style="fill: #9f9d9c;"/>
          <path d="M89.62,732.33c-16.77,9.23-16.77,24.2,0,33.42,16.77,9.23,43.88,9.23,60.57,0,16.77-9.23,16.77-24.2,0-33.42-16.77-9.23-43.88-9.23-60.57,0Z" style="fill: #9f9d9c;"/>
          <path d="M89.62,716.96c-16.77,9.23-16.77,24.2,0,33.42,16.77,9.23,43.88,9.23,60.57,0,16.77-9.23,16.77-24.2,0-33.42-16.77-9.23-43.88-9.23-60.57,0Z" style="fill: #424241;"/>
        </g>
        <g>
          <path d="M122.49,672.37l-9.57-15.78,74.63-41.19c15.5-8.58,28.63-30.27,28.63-47.42v-154.16c0-6.39-1.86-11.01-5-12.79-3.22-1.78-8.3-.97-14.15,2.27l-74.63,41.19-9.57-15.78,74.63-41.19c11.86-6.55,23.97-7.36,33.21-2.27,9.23,5.1,14.57,15.54,14.57,28.57v154.16c0,23.63-16.77,51.39-38.2,63.2l-74.63,41.19h.08Z" style="fill: #b2b2b2;"/>
          <path d="M207.29,719.14h0c-6.35,0-12.96-1.86-19.74-5.58l-149.35-82.38c-21.43-11.82-38.2-39.57-38.2-63.2v-154.16c0-22.01,14.06-31.88,28.04-31.88,6.35,0,12.96,1.86,19.74,5.58l149.35,82.38c21.43,11.82,38.2,39.57,38.2,63.2v154.16c0,9.06-2.46,16.83-7.2,22.5-5.08,6.07-12.45,9.39-20.84,9.39h0ZM28.12,400.22c-7.79,0-8.98,8.58-8.98,13.68v154.16c0,17.16,13.13,38.84,28.63,47.42l149.35,82.38c7.03,3.88,12.96,4.29,16.1.57,1.95-2.35,3.05-6.31,3.05-11.17v-154.16c0-17.16-13.13-38.84-28.63-47.42l-149.35-82.38c-3.73-2.02-7.2-3.16-10.17-3.16v.08Z" style="fill: #716f6f;"/>
          <path d="M119.87,741.15c-5.25,0-9.57-4.05-9.57-9.14v-350.08c0-5.02,4.24-9.14,9.57-9.14s9.57,4.05,9.57,9.14v350.08c0,5.02-4.24,9.14-9.57,9.14Z" style="fill: #716f6f;"/>
          <path d="M28.04,719.14c-4.83,0-9.4-1.13-13.38-3.32-9.23-5.1-14.57-15.54-14.57-28.57v-154.16c0-23.63,16.77-51.39,38.2-63.2l74.63-41.19c4.57-2.51,10.42-1.05,13.05,3.32,2.63,4.37,1.1,9.95-3.47,12.46l-74.63,41.19c-15.5,8.58-28.63,30.27-28.63,47.42v154.16c0,6.39,1.86,11.01,5,12.79,3.22,1.78,8.3.97,14.06-2.27l74.63-41.19c4.57-2.51,10.42-1.05,13.05,3.32,2.63,4.37,1.1,9.95-3.47,12.46l-74.63,41.19c-6.69,3.72-13.47,5.58-19.74,5.58h-.08Z" style="fill: #b2b2b2;"/>
        </g>
      </g>
    </g>
  </g>
</svg>