<?xml version="1.0" encoding="UTF-8"?>
<svg id="_レイヤー_2" data-name="レイヤー_2" xmlns="http://www.w3.org/2000/svg" viewBox="0 0 402.84 325.33">
  <g id="_写真" data-name="写真">
    <g>
      <path d="M206.61,0l-66.04,166.92,158.33.3c1.24.09,1.87.81,1.51,1.96-3.05,6.63-4.26,14.12-7.99,20.38H86.14L159.98,0h46.63Z" style="fill: #050101;"/>
      <path d="M274.29,275.88c2.94.34,8.15,2.51,9.1,5.4.68,2.07.63,14.09.25,16.59-.41,2.68-2.57,3.42-2.55,3.65.1,1.14,2.59,2.25,2.59,2.43v20.83h-9.07v-18.41c0-2.63-6.97-2.97-9.07-2.72v21.13h-9.07v-48.9c5.63.47,12.33-.63,17.81,0ZM265.55,298.82c2.26-.3,7.64.92,8.75-1.2.58-1.1.59-13.99,0-15.1-.9-1.69-6.79-1.84-8.75-1.8v18.11Z" style="fill: #050101;"/>
      <path d="M237.7,319.95s-.88-.11-1.08.22c-.88,1.45-1.6,2.8-3.62,3.56-4.89,1.83-20.95,2.08-22.86-3.74l-.2-42.51c.51-1.44,9.48-1.91,9.65.51l-.69,40.95c1.51,2.5,10.39,1.63,10.39-.5v-41.96h8.42v43.47Z" style="fill: #050101;"/>
      <path d="M191.08,319.44c-1.65,7.14-23.51,7.64-26.91.94l-.33-38.4c-.1-2.5,1.87-4.28,4.15-5.25,1.05-.45.98-.81,1.53-.95.12-.03,0,0,1.76-.15,2.65-.22,9.64-.23,12.29.11,7.74.98,8.16,6.88,7.51,12.93-.41,3.87-.7,2.64-1.13,2.87-.17.09-.77.27-1.71.55-1.88.58-4.25,1.02-6.24,1.11v-11.17c0-1.38-7.85-3.26-8.94.12v35.99c.79,2.44,6.25,2.37,8.03,1.08,2.17-1.58-.1-7.69,1.22-9.72.79-1.22,6.99-2.4,8.76-2.4-.56,3.57.76,9.08,0,12.38Z" style="fill: #050101;"/>
      <path d="M80.96,309.69v8.75c0,1.39,7.78,3.51,8.45-1.18,2.16-15.12-20.72-19.53-18.12-35,.55-3.27,4.2-5.7,7.56-6.23,4.91-.78,18.13-.88,19.95,4.65.62,1.89.82,4.53-1.03,5.74-.65.42-6.91,2.18-7.37,2.08-2.6-.58,1.62-7.7-4.74-8.26-6.41-.57-5.49,7.39-3.3,10.94,3.83,6.21,16.01,14.06,16.76,21.2.17,1.6.23,6.93-.37,8.17-3.17,6.52-25.7,6.75-27.36-1.64-1.51-7.64,2.38-8.71,9.56-9.22Z" style="fill: #050101;"/>
      <path d="M121.76,277.39c.42-1.28,4.81-1.44,6.12-1.52,6.36-.37,12.8.44,19.13.01.73.57-3.57,5.43-4.85,5.43h-10.36c-.07,0-.97.84-.97.91v13.88c0,2.37,13-.64,12.96.61-1.76,3.07-2.94,4.66-6.81,5.13-1.17.14-6.15-.47-6.15.9v16.6h17.49c.03,2.31-3.77,5.43-6.15,5.43h-20.4v-47.39Z" style="fill: #050101;"/>
      <path d="M391.85,324.78c-2.26-.14-5.95.39-7.94-.6-2.43-1.21-.38-17.45-1.28-20.68l-9.67-25.38c-.4-1.29,1.8-2.27,1.8-2.27.07-.3,5.18-1.05,6.64-.04,1.01.15-2.24.28,0,0l6.24,18.8c.98-.02,4.21-16.62,6.05-18.57,1.72-1.82,9.06-.59,9.15.75-2.1,3.42-2.88,7.37-4.33,11.03-.64,1.61-1.49,3.97-1.49,3.97-.59,2.75-5.17,10.02-5.17,13.38v19.62Z" style="fill: #050101;"/>
      <path d="M367.23,276.49c-.26,1.65-2.21,4.08-3.85,4.56-2.32.68-12.34-.65-12.34,1.78v41.96c-2.62-1.14-5.62-.43-8.42-.6v-42.86h-12.31c-.06-.98-.28-4.83.97-4.83h35.95Z" style="fill: #050101;"/>
      <rect x="305.7" y="275.85" width="9.07" height="48.96" style="fill: #050101;"/>
      <g>
        <path d="M0,276.79c.39-1.17,4.36-1.1,5.55-.96s5.01,0,3.33.59c-.21.07-1.3-.57,0,0l.18,42.93h19.43c-.07,1.77-3.57,5.43-5.51,5.43H0v-47.99Z" style="fill: #050101;"/>
        <path d="M44.05,324.18c-1.99-.35-7.78.6-9.11-.27-1.08-.7-1.72-5.42,1.63-5.8,6.42-.73,8.4-.38,7.48,6.07Z" style="fill: #050101;"/>
      </g>
      <polygon points="284.13 138.93 174.03 139.31 178.84 126.28 288.27 126.28 284.13 138.93" style="fill: #050101;"/>
      <polygon points="300.12 94.4 190.03 94.78 194.84 81.74 304.27 81.74 300.12 94.4" style="fill: #050101;"/>
      <polygon points="314.73 52.22 204.64 52.6 209.45 39.57 318.87 39.57 314.73 52.22" style="fill: #050101;"/>
      <polygon points="312.77 74.25 204.64 74.44 206.41 69.63 314.64 69.95 312.77 74.25" style="fill: #050101;"/>
      <polygon points="296.96 118.58 188.83 118.77 190.6 113.96 298.83 114.27 296.96 118.58" style="fill: #050101;"/>
      <polygon points="324.9 32.63 216.77 32.83 218.54 28.02 326.77 28.33 324.9 32.63" style="fill: #050101;"/>
    </g>
  </g>
</svg>