<?xml version="1.0" encoding="UTF-8"?>
<svg id="_レイヤー_2" data-name="レイヤー_2" xmlns="http://www.w3.org/2000/svg" viewBox="0 0 211.5 130.37">
  <g id="_写真" data-name="写真">
    <g>
      <rect y="104.11" width=".14" height="25.87" style="fill: #24272b;"/>
      <path d="M4.03,72.99c-.49.6-1.09,1.14-1.81,1.61-.11.04-.14,0-.08-.11,1.07-.94,1.87-1.91,2.37-2.91h-2.23v-.17h2.32c.21-.43.37-.87.48-1.3l.56.28c.19.13.11.2-.23.2-.15.36-.28.63-.4.82h2.63l.42-.42.54.4c.11.09.11.16,0,.2h-3.65c-.19.34-.38.63-.57.88l.08.11h2.26l.17-.23.4.28c.11.09.07.16-.11.2v3.22c0,.21-.07.37-.2.48-.08.08-.17.11-.28.11-.08,0-.11-.04-.11-.11,0-.09-.06-.16-.17-.2l-.37-.08c-.08-.04-.08-.08,0-.11h.56c.13,0,.2-.07.2-.2v-1.05h-2.43v1.67c-.25.23-.37.24-.37.03v-3.59ZM6.82,72.73h-2.43v.9h2.43v-.9ZM6.82,74.71v-.9h-2.43v.9h2.43Z" style="fill: #24272b;"/>
      <path d="M2.64,115.49l.42.2h1.53l.17-.23.4.28c.13.09.09.16-.11.2v1.67c-.25.23-.37.24-.37.03v-.28h-1.67v.23c0,1.11-.29,2.03-.88,2.74-.11.08-.14.05-.08-.08.4-.77.59-1.61.59-2.52v-2.23ZM2.08,114.39h2.52l.31-.31.4.28c.11.09.11.16,0,.2h-3.22v-.17ZM3.01,117.18h1.67v-1.33h-1.67v1.33ZM3.71,120.27c-.17.02-.19-.03-.06-.14.53-.23.97-.52,1.33-.88.45-.45.68-1.14.68-2.06v-2.91l.42.28c1.06-.21,1.69-.4,1.89-.57l.51.25c.19.13.06.19-.4.17-.66.11-1.35.22-2.06.31v1.47h1.84l.37-.37.45.34c.11.09.11.16,0,.2h-1.1v3.82c-.25.23-.37.24-.37.03v-3.84h-1.19v.82c0,.9-.26,1.62-.79,2.15-.41.41-.92.72-1.53.93Z" style="fill: #24272b;"/>
      <g>
        <path d="M183.4,114.91l.91-.06v-3.27c0-.18-.08-.26-.25-.26h-.75v-.23c.54,0,1.16-.26,1.38-.47h.22c-.02.23-.05.83-.05,1.25v2.72c0,.2.07.26.21.26l.72.05v.26h-2.38v-.25Z" style="fill: #24272b;"/>
        <path d="M186.59,113.64c.19,0,.38.17.38.4,0,.42-.39.3-.39.51,0,.24.3.49.82.49.56,0,.95-.46.95-1.29,0-.75-.33-1.23-.89-1.23-.3,0-.78.2-.78.32,0,.11-.05.33-.23.33-.07,0-.17-.05-.17-.2,0-.22.16-.25.17-.4.06-.68.11-1.31.15-1.98.42.11.86.19,1.3.19.56,0,.74-.17.84-.17.03,0,.05.02.05.05,0,.05-.22.7-1.1.7-.28,0-.58-.07-.88-.11-.02.39-.07.87-.11,1.28.23-.18.55-.28.85-.28.83,0,1.45.54,1.45,1.42s-.62,1.64-1.58,1.64c-.79,0-1.29-.48-1.29-1.06,0-.32.19-.6.46-.6Z" style="fill: #24272b;"/>
      </g>
      <path d="M195.93,113.66c-.21.86-.42,1.41-.65,1.63-.24.24-.47.38-.7.41-.21.05-.31,0-.31-.16,0-.12-.08-.22-.23-.28l-.31-.16c-.05-.05-.03-.08.05-.08l.67.15c.16,0,.28-.02.39-.05.1-.04.21-.13.31-.29.16-.31.3-.74.44-1.29h-2.35l-.49.96c-.28.1-.38.08-.31-.08.31-.59.59-1.19.83-1.81h-1.94v-.16h5.02l.39-.39.49.36c.1.09.1.15,0,.18h-3.59l-.34.78h2.2l.23-.23.36.36c.09.1.03.15-.16.13ZM192.62,109.99l.39.18h2.2l.18-.23.41.28c.14.1.08.17-.18.21v1.45c-.22.21-.34.22-.34.03v-.23h-2.33v.31c-.22.21-.34.22-.34.03v-2.02ZM195.28,111.51v-1.19h-2.33v1.19h2.33Z" style="fill: #24272b;"/>
      <g>
        <rect x="53.46" width=".14" height=".14" style="fill: #24272b;"/>
        <rect x="53.46" y="17.58" width=".14" height=".14" style="fill: #24272b;"/>
        <path d="M94.73,13.76l.46-.13c.03.1.08.26.13.42,1.06,0,1.88-.03,2.47-.06v.42c-.66-.05-1.59-.06-2.82-.06s-2.18.02-2.84.06v-.42c.65.04,1.55.06,2.72.06-.04-.1-.08-.21-.12-.28ZM92.48,13.29c-.09-.15-.15-.21-.28-.28.29-.19.58-.51.8-.91.13.11.22.16.35.22h1.03c.42,0,.56,0,.73-.03l-.07.92c-.03.34-.1.42-.58.53,0-.11-.05-.27-.13-.4.3.04.33.01.35-.15l.03-.58h-1.57c-.08.09-.15.18-.23.26.14,0,.31.01.63.01.37,0,.53,0,.69-.01,0,.04,0,.09,0,.19v.45c0,.11,0,.2,0,.32h-.33v-.15h-.72v.19h-.32c0-.12,0-.21,0-.32v-.62c-.13.15-.25.27-.37.38ZM94.17,11.62c0-.19,0-.29-.01-.37.15.04.3.05.4.04.06,0,.07.02.02.04-.03.02-.05.1-.05.14v.14c.38,0,.63,0,.88-.03v.37c-.25-.02-.5-.03-.88-.03v.21h-.35v-.21h-.55v.24h-.33v-.24c-.45,0-.73.01-1.01.03v-.37c.28.02.57.03,1.01.03,0-.19,0-.3-.01-.38.15.03.29.04.38.04.06,0,.07.02.02.04-.03.02-.05.1-.05.14v.15h.55ZM94.9,14.92c-.83,0-1.58.02-2.04.06v-.41c.46.04,1.21.06,2.04.06s1.57-.01,2.02-.06v.41c-.45-.04-1.18-.06-2.02-.06ZM94.91,15.49c-.83,0-1.57.02-2.02.06v-.41c.46.04,1.19.06,2.02.06s1.55-.02,2-.06v.41c-.45-.04-1.17-.06-2-.06ZM93.37,16.7v.27h-.44c.01-.1.01-.19.01-.3v-.62c0-.1,0-.2-.01-.29.18.01.78.02,2,.02s1.8,0,1.97-.03c-.02.1-.03.19-.03.3v.6c0,.11,0,.19.03.29h-.46v-.24h-3.07ZM93.89,13.1h-.72v.31h.72v-.31ZM96.44,16.41v-.33h-3.07v.33h3.07ZM95.48,12.84c-.1-.09-.19-.15-.3-.21.28-.35.52-.8.66-1.42.15.08.33.15.48.15.08,0,.08.08,0,.12-.04.02-.12.1-.23.3h.96c.24,0,.48-.01.62-.03v.39c-.12-.01-.3-.02-.49-.02-.12.43-.28.75-.53,1,.26.12.57.19.96.19-.1.15-.16.29-.2.46-.48-.1-.8-.21-1.05-.38-.22.15-.48.28-.8.41-.07-.11-.2-.26-.32-.35.31-.08.6-.17.84-.31-.12-.13-.23-.31-.35-.51l.29-.15c.08.19.2.34.34.46.23-.2.37-.46.42-.81h-.84c-.1.19-.25.43-.45.71Z" style="fill: #24272b;"/>
        <path d="M100.09,14.44c-.11-.18-.2-.3-.35-.42.57-.66,1.07-1.91,1.24-2.9.21.1.45.19.58.22.09.02.1.08,0,.15-.1.07-.17.19-.28.51-.04.12-.1.27-.17.42v4.53h-.61c.08-.52.12-.99.12-1.58v-1.86c-.19.37-.41.76-.54.92ZM103.95,15.89c0,.31,0,.57.03.88h-.51c.03-.31.03-.57.03-.88h-.84v1.01h-.53c.06-.38.09-.83.09-1.25v-1.25c-.19.21-.41.44-.68.72-.13-.22-.2-.29-.34-.42.52-.35.98-.82,1.36-1.44-.55,0-.86.03-1.16.05v-.5c.33.03.8.05,1.31.05v-.6c-.37,0-.71.03-.96.05v-.48c.25.03.58.04.96.05,0-.35-.02-.56-.05-.76.17.03.38.05.55.05.1,0,.1.04.03.1-.04.03-.06.09-.06.19v.42h.79c0-.33-.01-.57-.04-.78.14.03.47.05.55.05s.11.04.02.11c-.04.03-.06.09-.06.18v.44c.4,0,.76-.03.98-.05v.48c-.25-.03-.58-.04-.98-.05v.6c.51,0,.93-.02,1.25-.05v.5c-.33-.03-.79-.05-1.35-.05h-1.24c-.08.14-.17.28-.29.44h.96c.59,0,1.22-.01,1.55-.03-.01.08-.02.21-.02.5v2.31c0,.37-.07.45-.73.53-.01-.22-.06-.35-.17-.53.39,0,.44-.04.44-.18v-.42h-.88ZM103.5,14.61v-.52h-.84v.52h.84ZM102.66,15.01v.48h.84v-.48h-.84ZM103.95,12.87v-.6h-.79v.6h.79ZM104.83,14.61v-.52h-.88v.52h.88ZM103.95,15.01v.48h.88v-.48h-.88Z" style="fill: #24272b;"/>
        <path d="M109.34,13.06l.49-.14c.1.12.23.28.36.49l-.22.08h1.03c.16-.17.28-.35.38-.58.22.08.39.12.53.13.08,0,.08.06-.01.1-.08.03-.18.12-.37.35.5,0,.89-.01,1.39-.04v.49c-.53-.03-1.03-.05-2.07-.05v.37c.81,0,1.37-.01,1.83-.04v.46c-.46-.03-1.02-.05-1.83-.05v.4c1.34,0,1.86-.02,2.48-.05v.49c-.65-.03-1.19-.04-2.02-.04.5.49,1.25.77,2.19.86-.13.13-.26.4-.32.58-1.23-.31-1.93-.78-2.33-1.39v.5c0,.32.03.72.06,1.11h-.63c.04-.39.06-.79.06-1.11v-.45c-.49.64-1.06.99-2.21,1.32-.07-.19-.18-.35-.36-.49.83-.12,1.57-.43,2.15-.94-.82,0-1.37.01-1.98.04v-.49c.6.04,1.09.05,2.4.05v-.4c-.8,0-1.35.02-1.81.05v-.46c.46.03,1.01.04,1.81.04v-.37c-1.04,0-1.51.02-2.04.05v-.49c.51.03.91.04,1.35.04-.08-.14-.17-.27-.31-.42ZM109.84,11.86c0-.29-.01-.53-.04-.69.18.03.39.05.58.04.1,0,.11.05.04.1-.08.05-.11.12-.11.26v.92h.58v-.62c0-.29-.01-.53-.04-.69.19.03.45.04.56.03.11,0,.12.06.05.1-.08.04-.1.12-.1.27v.91c.85,0,1.48-.02,2-.04v.5c-.67-.03-1.49-.05-2.75-.05s-2.07.02-2.75.05v-.5c.53.03,1.13.04,1.97.04v-.62ZM109.1,12.43c-.19-.22-.41-.45-.66-.66l.38-.34c.24.21.52.47.69.67l-.42.32ZM112.84,11.85c-.08.03-.24.12-.73.62-.1-.1-.21-.19-.42-.29.31-.25.47-.47.66-.79.21.16.41.29.5.33.1.04.1.09-.01.13Z" style="fill: #24272b;"/>
        <path d="M119.71,11.9v.54c-.3-.03-.66-.05-1.14-.06v.75h.49c.53-.44,1.25-1.21,1.43-1.57.17.15.35.29.54.4.1.06.08.09-.02.1-.08.01-.62.4-1.31,1.07.38-.01,1.19-.05,1.59-.07v.54c-.55-.04-1.22-.06-2.04-.06-.24.21-.57.44-.94.67h1.03c.41,0,.85-.02,1.08-.04-.03.19-.04.37-.04.63v1.29c0,.28.01.51.04.8h-.59v-.33h-2.35v.4h-.56c.04-.35.05-.59.05-.8v-1.16c-.35.19-.71.38-1.03.53-.09-.21-.21-.35-.39-.48.41-.08.91-.29,1.41-.56,0-.12-.01-.22-.04-.31.16.02.34.03.53.04.37-.21.73-.44,1.06-.67-1.38,0-2.19.03-2.85.07v-.54c.6.04,1.41.06,2.34.07v-.75c-.68,0-1.16.02-1.53.06v-.54c.38.04.85.06,1.53.06,0-.48-.03-.72-.07-.92.21.03.42.04.67.04.12,0,.12.04.03.1-.05.03-.08.15-.08.26v.51c.48,0,.84-.03,1.14-.06ZM117.5,14.7v.42h2.35v-.53h-2.17c-.06.04-.12.07-.18.11ZM117.5,16.14h2.35v-.6h-2.35v.6Z" style="fill: #24272b;"/>
        <g>
          <path d="M1.92,32.18h1.89l.37-.37.45.34c.11.09.11.16,0,.2H1.92v-.17ZM2.26,31.33h1.3l.31-.31.4.28c.11.09.11.16,0,.2h-2.01v-.17ZM2.26,33.05h1.33l.31-.31.4.28c.11.09.11.16,0,.2h-2.04v-.17ZM2.26,33.9h1.27l.31-.31.4.28c.11.09.11.16,0,.2h-1.98v-.17ZM2.88,34.89h.73l.17-.23.4.28c.11.09.08.16-.11.2v1.7c-.25.23-.37.24-.37.03v-.31h-.88v.51c-.25.23-.37.24-.37.03v-2.46l.42.25ZM3.7,36.39v-1.33h-.88v1.33h.88ZM4.86,35.93c-.02.4-.15.59-.4.59-.13,0-.2-.07-.2-.2,0-.09.04-.19.11-.28.21-.28.31-.68.31-1.19.04-.13.08-.13.11,0,.06.3.07.66.06,1.07ZM4.95,32.18c-.08-.04-.07-.07.03-.08.3.04.59.11.88.23.08-.28.12-.57.14-.85h-1.1v-.17h2.69l.17-.23.4.28c.11.09.08.16-.11.2v.37c0,.25-.03.58-.08.99-.06.4-.14.69-.25.88-.17.23-.36.34-.57.34-.11,0-.17-.06-.17-.17,0-.06-.08-.11-.23-.17l-.42-.06c-.08-.04-.08-.07,0-.08h.79c.13,0,.23-.04.28-.11.09-.11.17-.39.23-.82.04-.21.06-.48.06-.82v-.42h-1.33c-.04.42-.1.75-.2.99.28.15.47.27.57.37.09.09.14.18.14.25,0,.13-.05.2-.14.2-.08,0-.14-.03-.2-.08-.13-.17-.28-.33-.45-.48-.3.73-.87,1.29-1.7,1.67-.08,0-.08-.03-.03-.08.72-.49,1.21-1.07,1.47-1.75-.3-.17-.58-.29-.85-.37ZM6.02,36.58h1.07c.13,0,.22-.08.25-.25l.17-.82c.04-.08.07-.08.08,0v.9c0,.09.04.15.11.17.11.04.11.11,0,.23-.13.07-.3.11-.51.11h-1.38c-.25,0-.37-.11-.37-.34v-1.98l.48.08c.15.09.11.16-.11.2v1.53c0,.11.07.17.2.17ZM5.57,34.01c-.06-.06-.05-.08.03-.08.6.19,1.02.4,1.24.62.13.13.2.25.2.34,0,.11-.06.17-.17.17-.08,0-.15-.05-.23-.14-.26-.38-.62-.68-1.07-.9ZM7.38,34.63c-.06-.08-.04-.1.06-.08.3.11.56.27.76.48.34.34.51.62.51.85,0,.15-.07.23-.2.23-.09,0-.2-.14-.31-.42-.17-.41-.44-.76-.82-1.05Z" style="fill: #24272b;"/>
          <path d="M14.75,33.16h-1.92v1.38h1.39l.37-.37.45.34c.11.09.11.16,0,.2h-2.21v1.78c.13.04.38.06.74.06h2.23c-.11.04-.23.15-.34.34h-2.15c-1.09,0-1.9-.53-2.43-1.58-.25.7-.67,1.29-1.27,1.78-.09.02-.12,0-.08-.08.72-.7,1.14-1.8,1.27-3.31l.59.2c.17.08.09.15-.23.23-.06.36-.13.69-.23.99.41.72.92,1.16,1.53,1.33v-3.28h-1.87v-.17h3.34l.37-.37.45.34c.11.09.11.16,0,.2ZM15.12,31.98h-4.78c0,.6-.17.9-.51.9-.13,0-.2-.07-.2-.2,0-.08.04-.15.11-.23.24-.19.38-.49.4-.9.02-.11.06-.12.11-.03.02.06.04.15.06.28h2.15v-1.1l.51.08c.21.04.16.11-.14.23v.79h2.15l.23-.31.73.54c.15.13.1.2-.14.2-.23-.02-.4.03-.51.14l-.31.31c-.11.09-.15.08-.11-.06l.25-.65Z" style="fill: #24272b;"/>
          <path d="M22.64,33.25c.08.06.11.1.11.14,0,.06-.04.1-.11.14-.41.13-1.23.47-2.46,1.02v1.19c0,.17-.08.25-.23.25-.08,0-.11-.06-.11-.17v-1.1c-.51.23-.92.5-1.24.82-.17.17-.25.33-.25.48,0,.13.05.25.14.34.17.17.57.25,1.19.25s1.14-.05,1.55-.14c.13-.06.24-.08.31-.08.21,0,.31.09.31.28,0,.08-.06.12-.17.14-.32.07-.94.11-1.87.11-.74,0-1.23-.12-1.47-.37-.15-.15-.23-.31-.23-.48,0-.25.11-.48.34-.71.3-.3.76-.61,1.38-.93,0-.3-.07-.52-.2-.65-.08-.08-.2-.11-.37-.11-.47,0-1.04.41-1.7,1.21-.06.06-.11.08-.17.08-.09,0-.14-.08-.14-.25s.04-.27.11-.31c.15-.07.3-.2.45-.37.34-.34.71-.86,1.1-1.55-.15.02-.37.04-.65.06-.15.02-.28.03-.4.03-.08,0-.18-.07-.31-.2-.11-.09-.17-.21-.17-.34.04-.08.08-.07.11.03.11.17.33.25.65.25s.61-.02.88-.06c.15-.28.24-.51.25-.68.04-.26-.1-.42-.42-.48-.13-.02-.14-.06-.03-.11.34-.04.68.07,1.02.31.09.08.08.16-.03.25-.09.08-.25.31-.48.71.41-.08.75-.17,1.02-.28.09-.06.17-.08.23-.08s.12.04.2.11c.04.02.06.07.06.14,0,.06-.06.09-.17.11-.45.08-.93.15-1.44.23-.25.38-.5.75-.76,1.13-.06.09-.04.12.06.08.3-.15.56-.23.76-.23.26,0,.46.07.59.2.17.17.26.38.28.62.94-.45,1.54-.75,1.81-.91.09-.04.11-.08.06-.14-.11-.08-.24-.13-.4-.17-.11-.04-.11-.08,0-.11.3-.02.63.08.99.28Z" style="fill: #24272b;"/>
          <path d="M25.72,32.88c0-.3,0-.61.03-.93.02-.32-.15-.49-.51-.51-.11-.04-.12-.07-.03-.11.11-.02.22-.03.31-.03.23,0,.46.09.71.28.08.06.08.14,0,.25-.04.06-.08.17-.11.34-.04.17-.06.38-.06.62v2.57c0,.34.06.58.17.71.17.19.45.28.85.28.55,0,1.03-.11,1.44-.34.45-.24.95-.6,1.5-1.07.07-.04.1-.02.08.06-.51.6-1.02,1.05-1.53,1.33-.43.25-.95.37-1.55.37-.43,0-.77-.13-1.02-.4-.19-.21-.28-.51-.28-.91v-2.52Z" style="fill: #24272b;"/>
          <path d="M33.27,32.71c-.4,1.36-.79,2.69-1.19,4.01-.04.11-.1.14-.2.08-.06-.04-.09-.1-.11-.2-.06-.21-.06-.35,0-.42.11-.19.22-.41.31-.65.32-.9.62-1.83.9-2.77-.45.06-.79.1-1.02.14-.11.06-.21.05-.28-.03-.06-.06-.12-.13-.2-.23-.06-.08-.08-.16-.08-.25.02-.09.05-.11.08-.06.13.19.32.28.57.28.34,0,.67-.03.99-.08.17-.43.26-.77.28-1.02,0-.09-.03-.17-.08-.23-.09-.08-.21-.12-.34-.14-.13,0-.14-.04-.03-.11.09-.02.2-.03.31-.03.15,0,.36.09.62.28.13.09.13.18,0,.25-.09.06-.25.37-.45.93.38-.08.73-.21,1.05-.4.06-.06.12-.08.2-.08s.16.06.25.17c.09.13.05.22-.14.25-.41.09-.9.19-1.44.28ZM35.19,32.99c.47-.09.88-.12,1.22-.08.19.02.28.09.28.23,0,.11-.08.17-.23.17-.66,0-1.24.22-1.75.65-.09.06-.11.04-.06-.06.15-.19.41-.38.79-.56.15-.08.13-.11-.06-.11-.34,0-.81.11-1.41.34-.09.04-.11,0-.06-.08.38-.23.8-.39,1.27-.48ZM34.06,35.09c-.02.15-.03.25-.03.31,0,.23.08.42.25.59.21.21.54.31.99.31h.85c.3,0,.5-.03.59-.08.13-.08.24-.08.31-.03.13.09.21.16.23.2.07.15,0,.23-.23.23h-1.41c-.72,0-1.2-.12-1.44-.37-.19-.19-.28-.43-.28-.74,0-.17.02-.31.06-.42.08-.15.11-.15.11,0Z" style="fill: #24272b;"/>
          <path d="M40.76,31.81c-.7,1.34-1.55,2.25-2.54,2.74-.09,0-.11-.04-.06-.11,1.02-.7,1.76-1.73,2.23-3.11l.57.28c.15.13.08.2-.2.2ZM44.18,36.78c-.13.02-.24-.08-.31-.28-.06-.13-.11-.24-.17-.34l-4.21.42c-.11.32-.22.38-.31.17l-.42-.62h1.47l1.24-3,.56.28c.19.08.11.15-.23.23l-1.41,2.49,3.22-.08c-.26-.4-.64-.79-1.13-1.19-.08-.07-.06-.1.06-.08.55.25,1.01.57,1.39.96.3.3.45.57.45.79,0,.17-.07.25-.2.25ZM42.37,31.07c.28,1.23,1.15,2.18,2.6,2.85-.26.06-.45.17-.57.34-1.06-.68-1.83-1.7-2.32-3.05l.28-.14Z" style="fill: #24272b;"/>
          <path d="M45.53,37.21c-.06-.04-.07-.08-.03-.11,1.47-.21,2.53-.66,3.19-1.36-.43-.11-.94-.23-1.53-.34-.09.15-.18.29-.25.42-.28.08-.41.04-.37-.11.4-.6.74-1.23,1.05-1.89h-1.98v-.17h2.06c.17-.34.36-.79.57-1.36l.51.34c.09.11,0,.15-.25.11-.13.26-.27.57-.42.9h2.94l.42-.42.54.4c.11.09.11.16,0,.2h-1.72c-.28.77-.61,1.38-.99,1.81,1.02.28,1.65.55,1.89.79.15.15.23.28.23.4s-.07.18-.2.2c-.04,0-.14-.07-.31-.2-.43-.36-1.05-.67-1.84-.93-.87.83-2.03,1.27-3.5,1.33ZM46.35,31.5v.34h2.18v-1.13l.48.08c.15.09.11.16-.11.2v.85h2.15l.28-.28.62.62c.09.13.02.2-.23.2s-.39,0-.42.03l-.51.37c-.08.06-.1.04-.08-.06l.37-.71h-4.75c0,.36-.08.61-.23.76-.11.11-.24.17-.37.17-.09,0-.14-.06-.14-.17,0-.13.06-.25.17-.34.23-.19.38-.5.45-.93.08-.15.12-.15.14,0ZM49.8,33.81h-1.81c-.25.51-.5.99-.76,1.44.6.09,1.15.19,1.64.28.4-.43.71-1.01.93-1.72Z" style="fill: #24272b;"/>
          <path d="M54.1,35.93c.3-.3.6-.62.9-.96h-2.12v-.17h2.23c.24-.32.49-.65.73-.99v-1.27c-.85.9-1.87,1.55-3.05,1.92-.13,0-.15-.04-.06-.11,1.28-.57,2.19-1.21,2.71-1.92h-2.52v-.17h2.91v-.82c-.83.11-1.61.18-2.35.2-.08-.04-.08-.08,0-.11,1.88-.23,3.17-.48,3.87-.76l.34.34c.09.17,0,.2-.28.08-.4.08-.8.15-1.22.23v.85h2.06l.37-.37.45.34c.11.09.11.16,0,.2h-2.69c.73.74,1.66,1.16,2.77,1.27-.26.09-.45.23-.57.4-.9-.32-1.71-.87-2.4-1.64v1.3l-.14.08c.3.15.31.25.03.28-.19.23-.39.45-.59.68h2.8l.37-.37.45.34c.11.09.11.16,0,.2h-1.7c-.11.38-.34.72-.68,1.02,1.02.26,1.53.54,1.53.82,0,.11-.06.17-.17.17-.09,0-.22-.06-.37-.17-.34-.23-.74-.42-1.22-.57-.72.55-1.76.84-3.14.88-.08-.04-.08-.08,0-.11,1.39-.19,2.34-.49,2.83-.9-.49-.17-1-.26-1.53-.28-.09.09-.19.18-.28.25-.34.06-.44,0-.31-.14ZM57.04,34.97h-1.61c-.23.25-.44.49-.65.74.53,0,1.07.06,1.64.17.24-.19.45-.49.62-.9Z" style="fill: #24272b;"/>
          <path d="M62.1,36.1l.51.31c.09.11-.04.15-.4.11-.75.4-1.51.65-2.26.76-.09,0-.1-.04-.03-.11.9-.26,1.63-.62,2.18-1.07ZM61.39,32.91h3.67l.17-.23.4.28c.11.09.08.16-.11.2v2.77c-.25.23-.37.24-.37.03v-.08h-3.82v.23c-.25.23-.37.24-.37.03v-3.48l.42.25ZM64.73,32.26h-3.08v.14c-.25.23-.37.24-.37.03v-1.67l.42.28h2.94l.17-.23.4.28c.11.09.07.16-.11.2v1.07c-.25.23-.37.24-.37.03v-.14ZM61.33,33.08v.79h3.82v-.79h-3.82ZM61.33,34.78h3.82v-.74h-3.82v.74ZM65.15,35.71v-.76h-3.82v.76h3.82ZM61.64,31.21v.88h3.08v-.88h-3.08ZM63.96,36.19c-.06-.08-.04-.11.06-.11.72.09,1.3.25,1.75.48.34.17.51.36.51.57,0,.13-.05.2-.14.2s-.23-.08-.4-.25c-.4-.38-.99-.67-1.78-.88Z" style="fill: #24272b;"/>
          <path d="M70.24,30.68l.62.25c.09.15,0,.2-.28.14.72.92,1.77,1.64,3.17,2.15-.23.08-.4.21-.51.4-1.24-.64-2.17-1.47-2.77-2.49-1.07,1.36-2.14,2.22-3.19,2.6-.09,0-.1-.04-.03-.11,1.24-.72,2.24-1.7,3-2.94ZM72.07,36.25c-.25-.25-.52-.48-.82-.71-.09-.08-.08-.1.06-.08.49.19.91.43,1.27.74.26.23.4.46.4.71,0,.19-.07.28-.2.28-.09,0-.18-.08-.25-.25-.06-.13-.17-.31-.34-.54l-3.84.4c-.11.36-.22.42-.31.2l-.28-.54,1.3-.03.57-1.61h-2.32v-.17h5.26l.37-.37.45.34c.11.09.11.16,0,.2h-3.28l-.85,1.58,2.83-.14ZM68.65,33.31h2.54l.31-.31.4.28c.11.09.11.16,0,.2h-3.25v-.17Z" style="fill: #24272b;"/>
        </g>
        <path d="M108.77,32.87h-1.73v-.16h1.73v-1.63l.44.08c.14.09.1.15-.1.18v5.35c-.22.21-.34.22-.34.03v-1.91c-.45.24-.92.48-1.42.72-.02.28-.09.33-.21.15l-.28-.39c.67-.21,1.31-.42,1.91-.65v-1.78ZM110.45,36.64c-.21,0-.31-.1-.31-.31v-5.28l.44.08c.14.09.1.15-.1.18v2.2c.55-.38,1.12-.8,1.71-1.27l.28.23c.28.19.22.27-.15.23-.62.36-1.23.68-1.84.96v2.56c0,.07.03.1.1.1h1.42c.17,0,.28-.09.31-.26l.18-.85s.06-.03.08,0v.91c0,.09.03.16.1.21.1.09.09.16-.03.23-.09.05-.22.08-.39.08h-1.81Z" style="fill: #24272b;"/>
        <path d="M114.38,33.67c-.09,0-.16-.1-.23-.31-.07-.19-.22-.35-.44-.49-.12-.09-.11-.13.03-.13.53.14.8.37.8.7,0,.15-.05.23-.16.23ZM115.51,32.12l-.88,2.84c-.07.22-.06.55.03.98.05.28.07.49.05.65-.03.17-.12.26-.26.26-.19,0-.28-.09-.26-.28.07-.52.09-.91.05-1.16-.05-.14-.14-.23-.26-.28l-.31-.05v-.1h.59l1.11-2.92c.1-.09.15-.06.13.08ZM114.87,31.99c-.09,0-.16-.07-.23-.21-.09-.19-.26-.35-.52-.49-.12-.07-.11-.1.03-.1.59.1.88.3.88.59,0,.14-.05.21-.16.21ZM115.28,33.46c.64-.81,1.1-1.64,1.4-2.48l.41.21c.17.09.13.16-.13.21-.09.15-.18.3-.28.44h2.17l.34-.34.44.31c.1.09.1.15,0,.18h-3.03c-.33.59-.73,1.11-1.22,1.58-.1.04-.14,0-.1-.1ZM118.85,34.39c-.02.54-.05,1-.1,1.4h.23l.34-.34.41.31c.1.09.1.15,0,.18h-.98c-.05.38-.15.64-.28.78-.14.14-.28.21-.41.21-.05,0-.09-.04-.1-.13.02-.1-.03-.16-.16-.18l-.34-.08c-.12-.05-.12-.09,0-.1h.36c.21,0,.34,0,.39-.03.09-.04.15-.19.18-.47h-2.15l-.08.41c-.26.14-.38.14-.36,0l.31-1.97h-.83v-.15h.83l.21-1.63.31.21h1.89l.18-.21.31.21c.21.14.18.24-.08.31l-.05,1.11h.18l.34-.34.41.31c.1.09.1.15,0,.18h-.96ZM117.12,35.79l.16-1.4h-.83l-.18,1.4h.85ZM117.3,34.24l.1-1.27h-.78l-.16,1.27h.83ZM117.61,34.39l-.16,1.4h.96c.05-.4.09-.86.1-1.4h-.91ZM118.51,34.24l.05-1.27h-.83l-.13,1.27h.91Z" style="fill: #24272b;"/>
        <path d="M122.75,35.92l-.62.67c-.02.24-.08.29-.18.13l-.23-.34.85-.46v-2.07h-1.01v-.16h.93l.16-.21.36.26c.1.09.07.15-.1.18v1.94c.24.21.51.36.8.47.19.07.47.1.83.1h3.05c-.1.1-.2.21-.28.31h-2.69c-.36,0-.69-.06-.98-.18-.29-.12-.59-.34-.88-.65ZM122.75,32.27c-.07,0-.15-.09-.23-.28-.17-.28-.39-.48-.65-.62-.05-.07-.03-.1.05-.1.67.24,1.01.49,1.01.75,0,.17-.06.26-.18.26ZM126.27,31.21l-.47.8h.88l.34-.34.41.31c.1.09.1.15,0,.18h-2.02l-.34.83h1.22l.16-.21.36.26c.1.09.07.15-.1.18v2.61c-.22.21-.34.22-.34.03v-.18h-1.99v.29c-.22.21-.34.22-.34.03v-3.18l.39.18h.49l.1-.83h-1.81v-.16h1.24c-.1-.4-.33-.7-.67-.91-.05-.07-.03-.1.05-.1.6.21.91.47.91.8,0,.1-.03.17-.08.21h.98l.34-1.16.49.26c.07.1,0,.14-.21.1ZM126.38,33.15h-1.99v.67h1.99v-.67ZM126.38,34.6v-.62h-1.99v.62h1.99ZM126.38,34.76h-1.99v.78h1.99v-.78Z" style="fill: #24272b;"/>
        <g>
          <path d="M131.19,31.99c-.64,1.22-1.41,2.06-2.33,2.51-.09,0-.1-.03-.05-.1.93-.64,1.61-1.59,2.04-2.84l.52.26c.14.12.08.18-.18.18ZM134.32,36.54c-.12.02-.22-.07-.28-.26-.05-.12-.1-.22-.16-.31l-3.85.39c-.1.29-.2.34-.28.16l-.39-.57h1.34l1.14-2.74.52.26c.17.07.1.14-.21.21l-1.29,2.28,2.95-.08c-.24-.36-.59-.72-1.03-1.09-.07-.07-.05-.09.05-.08.5.22.92.52,1.27.88.28.28.41.52.41.72,0,.16-.06.23-.18.23ZM132.67,31.32c.26,1.12,1.05,1.99,2.38,2.61-.24.05-.41.16-.52.31-.97-.62-1.67-1.55-2.12-2.79l.26-.13Z" style="fill: #24272b;"/>
          <path d="M135.56,36.93c-.05-.04-.06-.07-.03-.1,1.34-.19,2.32-.6,2.92-1.24-.4-.1-.86-.21-1.4-.31-.09.14-.16.27-.23.39-.26.07-.37.04-.34-.1.36-.55.68-1.13.96-1.73h-1.81v-.16h1.89c.16-.31.33-.72.52-1.24l.47.31c.09.1,0,.14-.23.1-.12.24-.25.52-.39.83h2.69l.39-.39.49.36c.1.09.1.15,0,.18h-1.58c-.26.71-.56,1.26-.9,1.66.93.26,1.51.5,1.73.72.14.14.21.26.21.36s-.06.16-.18.18c-.03,0-.13-.06-.28-.18-.4-.33-.96-.61-1.68-.85-.79.76-1.86,1.16-3.21,1.22ZM136.31,31.7v.31h1.99v-1.03l.44.08c.14.09.1.15-.1.18v.78h1.97l.26-.26.57.57c.09.12.02.18-.21.18s-.35,0-.39.03l-.47.34c-.07.05-.1.04-.08-.05l.34-.65h-4.34c0,.33-.07.56-.21.7-.1.1-.22.16-.34.16-.09,0-.13-.05-.13-.16,0-.12.05-.22.16-.31.21-.17.34-.46.41-.85.07-.14.11-.14.13,0ZM139.47,33.82h-1.66c-.22.46-.46.91-.7,1.32.55.09,1.05.17,1.5.26.36-.4.65-.92.85-1.58Z" style="fill: #24272b;"/>
          <path d="M143.4,35.76c.28-.28.55-.57.83-.88h-1.94v-.16h2.04c.22-.29.45-.59.67-.91v-1.16c-.78.83-1.71,1.41-2.79,1.76-.12,0-.14-.03-.05-.1,1.17-.52,2-1.1,2.48-1.76h-2.3v-.16h2.66v-.75c-.76.1-1.47.16-2.15.18-.07-.03-.07-.07,0-.1,1.72-.21,2.9-.44,3.54-.7l.31.31c.09.15,0,.18-.26.08-.36.07-.73.14-1.11.21v.78h1.89l.34-.34.41.31c.1.09.1.15,0,.18h-2.46c.67.67,1.52,1.06,2.53,1.16-.24.09-.41.21-.52.36-.83-.29-1.56-.79-2.2-1.5v1.19l-.13.08c.28.14.28.22.03.26-.17.21-.35.41-.54.62h2.56l.34-.34.41.31c.1.09.1.15,0,.18h-1.55c-.1.34-.31.66-.62.93.93.24,1.4.49,1.4.75,0,.1-.05.16-.15.16-.09,0-.2-.05-.34-.16-.31-.21-.68-.38-1.11-.52-.66.5-1.61.77-2.87.8-.07-.03-.07-.07,0-.1,1.28-.17,2.14-.45,2.59-.83-.45-.16-.91-.24-1.4-.26-.09.09-.17.16-.26.23-.31.05-.41,0-.28-.13ZM146.09,34.89h-1.47c-.21.22-.41.45-.59.67.48,0,.98.05,1.5.16.22-.17.41-.45.57-.83Z" style="fill: #24272b;"/>
          <path d="M150.72,35.92l.47.28c.09.1-.03.14-.36.1-.69.36-1.38.59-2.07.7-.09,0-.1-.04-.03-.1.83-.24,1.49-.57,1.99-.98ZM150.07,33h3.36l.16-.21.36.26c.1.09.07.15-.1.18v2.53c-.22.21-.34.22-.34.03v-.08h-3.49v.21c-.22.21-.34.22-.34.03v-3.18l.39.23ZM153.12,32.4h-2.82v.13c-.22.21-.34.22-.34.03v-1.53l.39.26h2.69l.16-.21.36.26c.1.09.07.15-.1.18v.98c-.22.21-.34.22-.34.03v-.13ZM150.02,33.15v.72h3.49v-.72h-3.49ZM150.02,34.7h3.49v-.67h-3.49v.67ZM153.51,35.56v-.7h-3.49v.7h3.49ZM150.3,31.44v.8h2.82v-.8h-2.82ZM152.42,36c-.05-.07-.03-.1.05-.1.66.09,1.19.23,1.6.44.31.15.47.33.47.52,0,.12-.04.18-.13.18s-.21-.08-.36-.23c-.36-.34-.91-.61-1.63-.8Z" style="fill: #24272b;"/>
          <path d="M158.17,30.95l.57.23c.09.14,0,.18-.26.13.66.84,1.62,1.5,2.9,1.97-.21.07-.36.19-.47.36-1.14-.59-1.98-1.34-2.53-2.28-.98,1.24-1.96,2.03-2.92,2.38-.09,0-.09-.03-.03-.1,1.14-.65,2.05-1.55,2.74-2.69ZM159.85,36.05c-.22-.22-.47-.44-.75-.65-.09-.07-.07-.09.05-.08.45.17.84.4,1.16.67.24.21.36.42.36.65,0,.17-.06.26-.18.26-.09,0-.16-.08-.23-.23-.05-.12-.16-.29-.31-.49l-3.52.36c-.1.33-.2.39-.28.18l-.26-.49,1.19-.03.52-1.47h-2.12v-.16h4.81l.34-.34.41.31c.1.09.1.15,0,.18h-3l-.78,1.45,2.59-.13ZM156.72,33.36h2.33l.28-.28.36.26c.1.09.1.15,0,.18h-2.97v-.16Z" style="fill: #24272b;"/>
        </g>
        <rect x=".07" y="25.14" width="211.43" height=".14" style="fill: #24272b;"/>
        <path d="M74.3,25.43h.15v17.4h-.15v-17.4ZM.22,25.43h.15v17.4h-.15v-17.4Z" style="fill: #24272b; fill-rule: evenodd;"/>
        <g>
          <path d="M16.38,49.74h1.89l.37-.37.45.34c.11.09.11.16,0,.2h-2.71v-.17ZM16.72,48.89h1.3l.31-.31.4.28c.11.09.11.16,0,.2h-2.01v-.17ZM16.72,50.61h1.33l.31-.31.4.28c.11.09.11.16,0,.2h-2.04v-.17ZM16.72,51.46h1.27l.31-.31.4.28c.11.09.11.16,0,.2h-1.98v-.17ZM17.34,52.45h.73l.17-.23.4.28c.11.09.08.16-.11.2v1.7c-.25.23-.37.24-.37.03v-.31h-.88v.51c-.25.23-.37.24-.37.03v-2.46l.42.25ZM18.16,53.95v-1.33h-.88v1.33h.88ZM19.32,53.5c-.02.4-.15.59-.4.59-.13,0-.2-.07-.2-.2,0-.09.04-.19.11-.28.21-.28.31-.68.31-1.19.04-.13.08-.13.11,0,.06.3.07.66.06,1.07ZM19.4,49.74c-.08-.04-.07-.07.03-.08.3.04.59.11.88.23.08-.28.12-.57.14-.85h-1.1v-.17h2.69l.17-.23.4.28c.11.09.08.16-.11.2v.37c0,.25-.03.58-.08.99-.06.4-.14.69-.25.88-.17.23-.36.34-.57.34-.11,0-.17-.06-.17-.17,0-.06-.08-.11-.23-.17l-.42-.06c-.08-.04-.08-.07,0-.08h.79c.13,0,.23-.04.28-.11.09-.11.17-.39.23-.82.04-.21.06-.48.06-.82v-.42h-1.33c-.04.42-.1.75-.2.99.28.15.47.27.57.37.09.09.14.18.14.25,0,.13-.05.2-.14.2-.08,0-.14-.03-.2-.08-.13-.17-.28-.33-.45-.48-.3.73-.87,1.29-1.7,1.67-.08,0-.08-.03-.03-.08.72-.49,1.21-1.07,1.47-1.75-.3-.17-.58-.29-.85-.37ZM20.48,54.15h1.07c.13,0,.22-.08.25-.25l.17-.82c.04-.08.07-.08.08,0v.9c0,.09.04.15.11.17.11.04.11.11,0,.23-.13.07-.3.11-.51.11h-1.38c-.25,0-.37-.11-.37-.34v-1.98l.48.08c.15.09.11.16-.11.2v1.53c0,.11.07.17.2.17ZM20.02,51.57c-.06-.06-.05-.08.03-.08.6.19,1.02.4,1.24.62.13.13.2.25.2.34,0,.11-.06.17-.17.17-.08,0-.15-.05-.23-.14-.26-.38-.62-.68-1.07-.9ZM21.83,52.2c-.06-.08-.04-.1.06-.08.3.11.56.27.76.48.34.34.51.62.51.85,0,.15-.07.23-.2.23-.09,0-.2-.14-.31-.42-.17-.41-.44-.76-.82-1.05Z" style="fill: #24272b;"/>
          <path d="M29.21,50.73h-1.92v1.38h1.39l.37-.37.45.34c.11.09.11.16,0,.2h-2.21v1.78c.13.04.38.06.74.06h2.23c-.11.04-.23.15-.34.34h-2.15c-1.09,0-1.9-.53-2.43-1.58-.25.7-.67,1.29-1.27,1.78-.09.02-.12,0-.08-.08.72-.7,1.14-1.8,1.27-3.31l.59.2c.17.08.09.15-.23.23-.06.36-.13.69-.23.99.41.72.92,1.16,1.53,1.33v-3.28h-1.87v-.17h3.34l.37-.37.45.34c.11.09.11.16,0,.2ZM29.58,49.54h-4.78c0,.6-.17.9-.51.9-.13,0-.2-.07-.2-.2,0-.08.04-.15.11-.23.24-.19.38-.49.4-.9.02-.11.06-.12.11-.03.02.06.04.15.06.28h2.15v-1.1l.51.08c.21.04.16.11-.14.23v.79h2.15l.23-.31.73.54c.15.13.1.2-.14.2-.23-.02-.4.03-.51.14l-.31.31c-.11.09-.15.08-.11-.06l.25-.65Z" style="fill: #24272b;"/>
        </g>
        <g>
          <path d="M43.46,50.39c-.98.9-1.99,1.58-3.02,2.04-.11.02-.13-.02-.06-.11,1.04-.55,1.9-1.21,2.6-1.98h-2.43v-.17h1.72c-.11-.4-.29-.72-.54-.96-.02-.06,0-.07.06-.06.38.17.63.36.76.56.11.19.12.34.03.45h.88v-1.33l-2.23.2c-.11-.02-.11-.07,0-.14,1.66-.19,3.09-.42,4.3-.71l.31.23c.28.17.19.24-.28.2l-1.72.2v1.36h.71l.54-1.24.42.23c.25.11.19.19-.17.23l-.65.79h1.33l.42-.42.54.4c.11.09.11.16,0,.2h-2.91c.83.81,1.83,1.31,3,1.5-.23.09-.37.24-.42.42-1.09-.34-2.02-.98-2.77-1.92h-.03v1.38c-.25.23-.37.24-.37.03v-1.36ZM45.7,52.34v1.84c-.25.23-.37.24-.37.03v-.17h-3.28v.34c-.25.23-.37.24-.37.03v-2.49l.42.17h3.14l.17-.23.4.28c.11.09.08.16-.11.2ZM43.46,52.94v-.68h-1.41v.68h1.41ZM42.05,53.87h1.41v-.76h-1.41v.76ZM43.83,52.94h1.5v-.68h-1.5v.68ZM43.83,53.87h1.5v-.76h-1.5v.76Z" style="fill: #24272b;"/>
          <path d="M52.96,52.23c-.23.94-.46,1.54-.71,1.78-.26.26-.52.41-.76.45-.23.06-.34,0-.34-.17,0-.13-.08-.24-.25-.31l-.34-.17c-.06-.06-.04-.08.06-.08l.73.17c.17,0,.31-.02.42-.06.11-.04.23-.14.34-.31.17-.34.33-.81.48-1.41h-2.57l-.54,1.04c-.3.11-.42.08-.34-.08.34-.64.64-1.3.9-1.98h-2.12v-.17h5.48l.42-.42.54.4c.11.09.11.16,0,.2h-3.93l-.37.85h2.4l.25-.25.4.4c.09.11.04.16-.17.14ZM49.34,48.22l.42.2h2.4l.2-.25.45.31c.15.11.08.19-.2.23v1.58c-.25.23-.37.24-.37.03v-.25h-2.54v.34c-.25.23-.37.24-.37.03v-2.21ZM52.25,49.89v-1.3h-2.54v1.3h2.54Z" style="fill: #24272b;"/>
        </g>
        <path d="M173.51,52.46c-.21.86-.42,1.41-.65,1.63-.24.24-.47.38-.7.41-.21.05-.31,0-.31-.16,0-.12-.08-.22-.23-.28l-.31-.16c-.05-.05-.03-.08.05-.08l.67.15c.16,0,.28-.02.39-.05.1-.04.21-.13.31-.29.16-.31.3-.74.44-1.29h-2.35l-.49.96c-.28.1-.38.08-.31-.08.31-.59.59-1.19.83-1.81h-1.94v-.16h5.02l.39-.39.49.36c.1.09.1.15,0,.18h-3.59l-.34.78h2.2l.23-.23.36.36c.09.1.03.15-.16.13ZM170.2,48.78l.39.18h2.2l.18-.23.41.28c.14.1.08.17-.18.21v1.45c-.22.21-.34.22-.34.03v-.23h-2.33v.31c-.22.21-.34.22-.34.03v-2.02ZM172.86,50.31v-1.19h-2.33v1.19h2.33Z" style="fill: #24272b;"/>
        <path d="M35.43,49.88c.13.13.1.22-.08.25-.47,1.34-.93,2.33-1.38,2.97-.11.17-.24.3-.37.4-.21.15-.35.13-.42-.06-.25-.07-.42-.22-.54-.42-.15-.26-.23-.57-.23-.93,0-.75.24-1.37.71-1.84.62-.62,1.38-.93,2.26-.93.94,0,1.68.26,2.2.79.38.38.57.85.57,1.41,0,.51-.18.96-.54,1.36-.51.56-1.27.93-2.29,1.1-.08-.04-.08-.08,0-.11.85-.21,1.5-.58,1.95-1.1.3-.36.45-.78.45-1.27s-.13-.91-.4-1.21c-.53-.6-1.32-.86-2.37-.76.17.09.33.22.48.37ZM34.92,50.05c.06-.23,0-.4-.14-.51-.49.08-.92.3-1.3.68-.49.49-.73,1.06-.73,1.72,0,.57.1.95.31,1.16.09.09.19.14.28.14.08,0,.17-.06.28-.17.55-.83.98-1.84,1.3-3.02Z" style="fill: #24272b;"/>
        <path d="M94.49,48.58l.49.23c.14.09.08.14-.18.16l-.28.41h1.01l.34-.34.41.31c.1.09.1.15,0,.18h-1.22c.26.24.39.44.39.59,0,.19-.07.28-.21.28-.12,0-.18-.05-.18-.16,0-.05,0-.11.03-.18.02-.16-.03-.34-.16-.54h-.52c-.29.38-.63.71-1.01,1.01-.1.04-.13,0-.08-.1.55-.55.94-1.17,1.16-1.86ZM98.17,53.72c.14-.14.26-.54.36-1.22h-2.09v1.99c-.22.21-.34.22-.34.03v-1.73c-.86.88-1.75,1.47-2.66,1.76-.12.02-.15-.02-.08-.1,1.05-.47,1.89-1.11,2.51-1.94h-1.53l-.08.41c-.22.17-.35.18-.36.03l.31-1.71.34.26h1.55v-.75h-2.15v-.16h4.06l.18-.18.41.21c.1.05.04.11-.18.18l-.1,1.01c-.24.17-.37.18-.39.03l.03-.18h-1.53v.7h2.04l.18-.18.39.26c.12.09.07.15-.15.18-.1.62-.22,1.03-.34,1.22-.1.19-.24.34-.41.44-.24.09-.36.04-.36-.13,0-.09-.04-.16-.13-.21l-.31-.21c-.09-.07-.07-.09.05-.08l.44.13c.14.05.25.03.34-.05ZM94.49,51.65l-.13.7h1.73v-.7h-1.6ZM97.13,48.99l-.26.39h1.42l.39-.39.49.36c.1.09.1.15,0,.18h-1.63c.24.22.36.43.36.62,0,.16-.06.23-.18.23-.07,0-.12-.04-.16-.1-.02-.05-.03-.15-.03-.29s-.06-.29-.18-.46h-.59c-.21.31-.47.59-.78.85-.1.05-.14.03-.1-.08.43-.47.74-1.03.93-1.71l.49.23c.14.09.08.14-.18.16ZM96.43,51.5h1.55l.08-.75h-1.63v.75Z" style="fill: #24272b;"/>
        <g>
          <path d="M113.83,53.7l.91-.06v-3.27c0-.18-.08-.26-.25-.26h-.75v-.23c.54,0,1.16-.26,1.38-.47h.22c-.02.23-.05.83-.05,1.25v2.72c0,.2.07.26.21.26l.72.05v.26h-2.38v-.25Z" style="fill: #24272b;"/>
          <path d="M118.13,49.37c.83,0,1.5,1.06,1.5,2.36s-.68,2.36-1.5,2.36-1.5-1.05-1.5-2.36.68-2.36,1.5-2.36ZM118.13,49.63c-.63,0-.85.86-.85,2.1s.22,2.1.85,2.1.85-.86.85-2.1-.22-2.1-.85-2.1Z" style="fill: #24272b;"/>
          <path d="M121.57,49.37c.83,0,1.5,1.06,1.5,2.36s-.68,2.36-1.5,2.36-1.5-1.05-1.5-2.36.68-2.36,1.5-2.36ZM121.57,49.63c-.63,0-.85.86-.85,2.1s.22,2.1.85,2.1.85-.86.85-2.1-.22-2.1-.85-2.1Z" style="fill: #24272b;"/>
          <path d="M125.01,49.37c.83,0,1.5,1.06,1.5,2.36s-.68,2.36-1.5,2.36-1.5-1.05-1.5-2.36.68-2.36,1.5-2.36ZM125.01,49.63c-.63,0-.85.86-.85,2.1s.22,2.1.85,2.1.85-.86.85-2.1-.22-2.1-.85-2.1Z" style="fill: #24272b;"/>
          <path d="M126.92,53.7l.91-.06v-3.27c0-.18-.08-.26-.25-.26h-.75v-.23c.54,0,1.16-.26,1.38-.47h.22c-.02.23-.05.83-.05,1.25v2.72c0,.2.07.26.21.26l.72.05v.26h-2.38v-.25Z" style="fill: #24272b;"/>
          <path d="M131.22,49.37c.83,0,1.5,1.06,1.5,2.36s-.68,2.36-1.5,2.36-1.5-1.05-1.5-2.36.68-2.36,1.5-2.36ZM131.22,49.63c-.63,0-.85.86-.85,2.1s.22,2.1.85,2.1.85-.86.85-2.1-.22-2.1-.85-2.1Z" style="fill: #24272b;"/>
          <path d="M133.16,54v-.21c.26-.38.6-.81.99-1.22.58-.61,1.25-1.32,1.26-2.1,0-.46-.3-.83-.81-.83-.32,0-.92.22-.92.68,0,.11.09.18.19.18.15,0,.3.18.3.41,0,.12-.14.38-.4.38-.28,0-.5-.3-.5-.67,0-.68.6-1.25,1.39-1.25.88,0,1.38.53,1.38,1.23,0,.54-.37,1.01-.73,1.33-.55.49-1.13.97-1.6,1.5,0,0,.23-.01.58-.01h1.03c.34,0,.45-.18.52-.79h.23c-.03.36-.05.69-.05,1.03v.34c-.47-.02-.97-.03-1.46-.03-.46,0-1,.02-1.42.04Z" style="fill: #24272b;"/>
          <path d="M137.11,52.85c.23,0,.36.23.36.42,0,.18-.13.2-.13.34,0,.18.29.23.42.23.72,0,1.15-.82,1.15-2.25v-.07c-.28.52-.72.74-1.11.74-.7,0-1.24-.54-1.24-1.34,0-.85.64-1.54,1.46-1.54,1.01,0,1.52,1.04,1.52,2.13,0,1.44-.68,2.56-1.8,2.56-.61,0-1.03-.32-1.03-.75,0-.28.19-.47.4-.47ZM138.01,49.63c-.54,0-.83.44-.83,1.2,0,.66.23,1.11.8,1.11.52,0,.85-.48.85-1.07s-.28-1.24-.82-1.24Z" style="fill: #24272b;"/>
        </g>
        <rect x=".07" y="42.69" width="211.43" height=".14" style="fill: #24272b;"/>
        <path d="M74.3,42.84h.15v17.44h-.15v-17.44ZM.07,42.84h.15v17.44H.07v-17.44Z" style="fill: #24272b; fill-rule: evenodd;"/>
        <path d="M41.87,76.6c-.09-.02-.11-.06-.06-.11.66-.49,1.16-1.04,1.5-1.64l.54.34c.04.11-.08.15-.34.11-.47.55-1.02.98-1.64,1.3ZM46.17,70.53l.42.23h.96l.17-.23.4.28c.11.09.08.16-.11.2v4.95c0,.21-.07.37-.2.48-.08.08-.17.11-.28.11-.08,0-.11-.04-.11-.11,0-.09-.06-.16-.17-.2l-.37-.08c-.08-.04-.08-.08,0-.11h.57c.13,0,.2-.07.2-.2v-2.03h-1.1c.04,1.17-.54,2.14-1.72,2.91-.13.08-.18.05-.14-.08.77-.58,1.24-1.28,1.41-2.09h-4.18v-.17h1.05v-2.71h-1.02v-.17h1.02v-1.16l.48.08c.15.09.11.16-.11.2v.88h1.24v-1.19l.48.08c.15.09.11.16-.11.2v.9h.2l.37-.37.45.34c.11.09.11.16,0,.2h-1.02v2.71h.4l.37-.37.42.34c.04-.21.06-.43.06-.68v-3.14ZM43.31,71.66v.79h1.24v-.79h-1.24ZM43.31,72.62v.76h1.24v-.76h-1.24ZM44.56,73.55h-1.24v.82h1.24v-.82ZM45.21,75.84c-.08,0-.13-.05-.17-.14-.15-.32-.4-.58-.73-.79-.06-.06-.05-.08.03-.08.7.21,1.05.49,1.05.85,0,.11-.06.17-.17.17ZM46.54,70.92v1.27h1.1v-1.27h-1.1ZM46.54,72.36v1.27h1.1v-1.27h-1.1Z" style="fill: #24272b;"/>
        <path d="M62.65,70.61h1.47l.17-.23.4.28c.11.09.08.16-.11.2v1.84c-.25.19-.37.2-.37.03v-.2h-1.61v3.96c-.25.23-.37.24-.37.03v-6.16l.42.25ZM62.59,70.78v.68h1.61v-.68h-1.61ZM62.59,71.63v.73h1.61v-.73h-1.61ZM64.2,73.38h1.41l.17-.23.4.28c.11.09.08.16-.11.2v2.12c-.25.23-.37.24-.37.03v-.42h-1.55v.59c-.25.23-.37.24-.37.03v-2.85l.42.25ZM64.14,74.23h1.55v-.68h-1.55v.68ZM64.14,75.19h1.55v-.79h-1.55v.79ZM67.48,72.53h-1.72v.2c-.25.23-.37.24-.37.03v-2.4l.42.25h1.58l.17-.23.4.28c.11.09.07.16-.11.2v5.14c0,.23-.07.4-.2.51-.11.09-.25.15-.4.17-.11.02-.17-.03-.17-.14,0-.09-.05-.16-.14-.2l-.48-.11c-.09-.04-.09-.08,0-.11h.76c.17,0,.25-.08.25-.25v-3.33ZM67.48,71.46v-.68h-1.72v.68h1.72ZM67.48,72.36v-.73h-1.72v.73h1.72Z" style="fill: #24272b;"/>
        <path d="M113.91,70.16h-2.74v-.16h.93v-1.71l.39.26h1.42v-1.27h-1.47c-.36.74-.85,1.34-1.47,1.81-.07.02-.09,0-.05-.08.78-.84,1.27-1.76,1.47-2.74l.49.18c.22.1.17.17-.16.21-.07.16-.14.31-.21.47h3.26l.34-.34.41.31c.1.09.1.15,0,.18h-2.28v1.27h1.29l.34-.34.41.31c.1.09.1.15,0,.18h-2.04v1.29h1.86l.39-.39.49.36c.1.09.1.15,0,.18h-2.74v1.86c-.22.21-.34.21-.34.03v-1.89ZM112.44,68.71v1.29h1.47v-1.29h-1.47Z" style="fill: #24272b;"/>
        <path d="M114.11,78.75h-2.74v-.16h.93v-1.71l.39.26h1.42v-1.27h-1.47c-.36.74-.85,1.34-1.47,1.81-.07.02-.09,0-.05-.08.78-.84,1.27-1.76,1.47-2.74l.49.18c.22.1.17.17-.16.21-.07.16-.14.31-.21.47h3.26l.34-.34.41.31c.1.09.1.15,0,.18h-2.28v1.27h1.29l.34-.34.41.31c.1.09.1.15,0,.18h-2.04v1.29h1.86l.39-.39.49.36c.1.09.1.15,0,.18h-2.74v1.86c-.22.21-.34.21-.34.03v-1.89ZM112.64,77.31v1.29h1.47v-1.29h-1.47Z" style="fill: #24272b;"/>
        <g>
          <path d="M157.98,80.19v-.21c.26-.38.6-.81.99-1.22.58-.61,1.25-1.32,1.26-2.1,0-.46-.3-.83-.81-.83-.32,0-.92.22-.92.68,0,.11.09.18.19.18.15,0,.3.18.3.41,0,.12-.14.38-.4.38-.28,0-.5-.3-.5-.67,0-.68.6-1.25,1.39-1.25.88,0,1.38.53,1.38,1.23,0,.54-.37,1.01-.73,1.33-.55.49-1.13.97-1.6,1.5,0,0,.23-.01.58-.01h1.03c.34,0,.45-.18.52-.79h.23c-.03.36-.05.69-.05,1.03v.34c-.47-.02-.97-.03-1.46-.03-.46,0-1,.02-1.42.04Z" style="fill: #24272b;"/>
          <path d="M163.3,78.63c.19,0,.38.17.38.4,0,.42-.39.3-.39.51,0,.24.3.49.82.49.56,0,.95-.46.95-1.29,0-.75-.33-1.23-.89-1.23-.3,0-.78.2-.78.32,0,.11-.05.33-.23.33-.07,0-.17-.05-.17-.2,0-.22.16-.25.17-.4.06-.68.11-1.31.15-1.98.42.11.86.19,1.3.19.56,0,.74-.17.84-.17.03,0,.05.02.05.05,0,.05-.22.7-1.1.7-.28,0-.58-.07-.88-.11-.02.39-.07.87-.11,1.28.23-.18.55-.28.85-.28.83,0,1.45.54,1.45,1.42s-.62,1.64-1.58,1.64c-.79,0-1.29-.48-1.29-1.06,0-.32.19-.6.46-.6Z" style="fill: #24272b;"/>
        </g>
        <g>
          <path d="M169.69,75.62h2.33l.15-.21.36.26c.1.09.07.15-.1.18v4.14c-.22.21-.34.22-.34.03v-.47h-2.46v.78c-.22.21-.34.22-.34.03v-5.02l.39.29ZM172.09,75.78h-2.46v1.63h2.46v-1.63ZM172.09,77.56h-2.46v1.84h2.46v-1.84Z" style="fill: #24272b;"/>
          <path d="M177.73,76.3c.4-.03.73-.09,1.01-.16.16-.03.28-.09.36-.16.09-.07.16-.08.23-.03.1.07.17.12.21.16.09.09.06.15-.08.18-.5.12-1.08.21-1.73.26v1.14c.34-.03.61-.07.8-.1.24-.03.4-.08.47-.13.09-.05.16-.05.23,0,.09.05.16.09.21.13.07.05.05.1-.05.16-.05.04-.19.06-.41.08-.45.05-.86.09-1.24.1v1.21c.67.14,1.27.33,1.78.57.16.07.23.19.23.36,0,.07-.03.11-.1.13-.05.02-.13,0-.23-.08-.57-.34-1.13-.59-1.68-.72.02.29-.04.52-.18.67-.19.21-.52.31-.98.31-.41,0-.72-.1-.93-.31-.1-.1-.16-.22-.16-.36,0-.16.07-.28.21-.39.22-.17.6-.26,1.14-.26.12,0,.33,0,.62.03v-1.14c-.26.02-.53.03-.8.03-.29,0-.51-.04-.65-.13-.19-.12-.28-.36-.26-.72.03-.07.08-.07.13,0,0,.24.04.41.13.49.1.1.32.16.65.16.29,0,.56-.02.8-.05v-1.14c-.33.03-.71.05-1.14.05-.31,0-.56-.03-.75-.08-.26-.07-.47-.21-.65-.41-.05-.1-.03-.13.08-.08.17.16.35.26.54.31.12.03.4.05.85.05.34,0,.7-.03,1.06-.08v-.44c0-.29-.03-.47-.08-.54-.09-.12-.23-.18-.44-.18-.12.02-.13-.02-.03-.1.09-.04.2-.05.34-.05.17,0,.38.07.62.21.12.07.12.16,0,.26-.09.07-.13.2-.13.39v.41ZM176.67,79.24c-.33,0-.58.04-.75.13-.17.09-.26.21-.26.36,0,.14.09.25.26.34.17.09.37.13.6.13.31,0,.55-.08.72-.23.14-.12.2-.34.18-.65-.38-.05-.63-.08-.75-.08Z" style="fill: #24272b;"/>
          <path d="M186.03,75.55c.1-.09.22-.09.34,0,.19.14.29.22.31.23.09.09.07.15-.05.18-1.07-.03-1.84.18-2.3.65-.45.45-.67.9-.67,1.34,0,.52.17.95.52,1.29.36.36.78.55,1.24.57.17,0,.28.03.34.1.07.09.1.16.1.23,0,.09-.07.13-.21.13-.48,0-.95-.18-1.4-.54-.53-.43-.8-1-.8-1.71,0-.66.34-1.25,1.01-1.79.09-.07.09-.1,0-.1-.53.1-1.04.21-1.53.31-.21.04-.41.1-.62.21-.16.07-.26.09-.31.08-.09-.02-.17-.06-.26-.13-.19-.14-.29-.28-.31-.44.03-.12.07-.13.1-.03.09.16.27.22.54.21.14,0,.37-.03.7-.1.9-.16,1.79-.32,2.69-.49.28-.05.47-.12.57-.21ZM186.24,77.74c-.1.04-.18,0-.23-.13-.12-.28-.35-.52-.67-.72-.04-.05-.03-.07.03-.05.29.05.55.16.78.34.1.09.17.19.21.31.03.14,0,.22-.1.26ZM186.01,76.48c-.04-.05-.03-.07.03-.05.29.05.55.16.78.34.1.09.17.19.21.31.03.14,0,.22-.1.26-.1.03-.18,0-.23-.13-.12-.28-.35-.52-.67-.72Z" style="fill: #24272b;"/>
        </g>
        <g>
          <path d="M144.14,97.45l.59-.03v-3.9c0-.11-.02-.23-.18-.24l-.61-.03v-.29h2.05v.29l-.61.03v3.91c0,.17.09.22.23.22l.58.03v.29h-2.06v-.29Z" style="fill: #24272b;"/>
          <path d="M148.88,97.45l.65-.03v-3.94c0-.25-.11-.28-.26-.28-.64,0-1.03.46-1.15,1.56l-.22-.02.1-1.97h.18c.05.11.15.19.25.19h2.87c.11,0,.2-.09.25-.19h.18l.1,1.97-.22.02c-.12-1.11-.52-1.56-1.15-1.56-.16,0-.27.03-.27.28v3.67c0,.17.15.27.29.27l.58.03v.29h-2.17v-.29Z" style="fill: #24272b;"/>
        </g>
        <path d="M23.27,71.94l.42.25c.13.09.07.15-.17.17-.45.7-.96,1.2-1.53,1.5-.08,0-.08-.04-.03-.11.6-.49,1.04-1.09,1.3-1.81ZM24.18,74.8c-.51.79-1.22,1.4-2.12,1.84-.08,0-.09-.03-.06-.08.87-.55,1.51-1.2,1.92-1.95-.28-.21-.64-.41-1.07-.59-.08-.06-.08-.09,0-.11.55.13.96.27,1.24.42.19-.3.38-.71.57-1.21l.48.23c.15.13.08.19-.2.17-.17.32-.37.65-.59.99.57.34.85.59.85.76s-.07.25-.2.25c-.06,0-.15-.08-.28-.23-.17-.19-.35-.35-.54-.48ZM22.11,71.43h1.67v-1.07l.48.08c.15.09.11.16-.11.2v.79h1.07l.37-.37.45.34c.11.09.11.16,0,.2h-3.93v-.17ZM28.27,74.82c0,.68-.14,1.13-.42,1.36-.19.15-.38.23-.57.23-.13,0-.19-.07-.17-.2,0-.09-.08-.16-.23-.2l-.34-.08c-.06-.06-.05-.09.03-.11l.57.08c.24.04.4.02.48-.06.09-.09.16-.23.2-.4.06-.24.08-.47.08-.68v-2.46h-.96v.51c0,1.79-.89,3.12-2.66,3.98-.09,0-.11-.05-.06-.14,1.56-.9,2.35-2.24,2.35-4.01v-.34h-.82v-.17h.82v-1.81l.51.08c.21.08.16.15-.14.23v1.5h.88l.17-.23.4.28c.11.09.07.16-.11.2v2.43ZM24.4,72.05c-.06-.06-.05-.08.03-.08.98.4,1.47.76,1.47,1.1,0,.13-.06.2-.17.2s-.23-.1-.34-.31c-.17-.28-.5-.58-.99-.9Z" style="fill: #24272b;"/>
        <g>
          <path d="M95.54,71.6v-.21c.26-.38.6-.81.99-1.22.58-.61,1.25-1.32,1.26-2.1,0-.46-.3-.83-.81-.83-.32,0-.92.22-.92.68,0,.11.09.18.19.18.15,0,.3.18.3.41,0,.12-.14.38-.4.38-.28,0-.5-.3-.5-.67,0-.68.6-1.25,1.39-1.25.88,0,1.38.53,1.38,1.23,0,.54-.37,1.01-.73,1.33-.55.49-1.13.97-1.6,1.5,0,0,.23-.01.58-.01h1.03c.34,0,.45-.18.52-.79h.23c-.03.36-.05.69-.05,1.03v.34c-.47-.02-.97-.03-1.46-.03-.46,0-1,.02-1.42.04Z" style="fill: #24272b;"/>
          <path d="M100.48,66.97c.83,0,1.5,1.06,1.5,2.36s-.68,2.36-1.5,2.36-1.5-1.05-1.5-2.36.68-2.36,1.5-2.36ZM100.48,67.23c-.63,0-.85.86-.85,2.1s.22,2.1.85,2.1.85-.86.85-2.1-.22-2.1-.85-2.1Z" style="fill: #24272b;"/>
          <path d="M102.42,71.6v-.21c.26-.38.6-.81.99-1.22.58-.61,1.25-1.32,1.26-2.1,0-.46-.3-.83-.81-.83-.32,0-.92.22-.92.68,0,.11.09.18.19.18.15,0,.3.18.3.41,0,.12-.14.38-.4.38-.28,0-.5-.3-.5-.67,0-.68.6-1.25,1.39-1.25.88,0,1.38.53,1.38,1.23,0,.54-.37,1.01-.73,1.33-.55.49-1.13.97-1.6,1.5,0,0,.23-.01.58-.01h1.03c.34,0,.45-.18.52-.79h.23c-.03.36-.05.69-.05,1.03v.34c-.47-.02-.97-.03-1.46-.03-.46,0-1,.02-1.42.04Z" style="fill: #24272b;"/>
          <path d="M106.94,71.32l.66-.03v-.9h-1.81v-.28l2.15-3.12h.24c-.02.25-.03.65-.03.97v2.13h.76v.3h-.76v.62c0,.19.05.26.19.27l.4.03v.25h-1.8v-.23ZM107.59,70.09v-2.11l-1.46,2.11h1.46Z" style="fill: #24272b;"/>
        </g>
        <g>
          <path d="M95.23,80.19v-.21c.26-.38.6-.81.99-1.22.58-.61,1.25-1.32,1.26-2.1,0-.46-.3-.83-.81-.83-.32,0-.92.22-.92.68,0,.11.09.18.19.18.15,0,.3.18.3.41,0,.12-.14.38-.4.38-.28,0-.5-.3-.5-.67,0-.68.6-1.25,1.39-1.25.88,0,1.38.53,1.38,1.23,0,.54-.37,1.01-.73,1.33-.55.49-1.13.97-1.6,1.5,0,0,.23-.01.58-.01h1.03c.34,0,.45-.18.52-.79h.23c-.03.36-.05.69-.05,1.03v.34c-.47-.02-.97-.03-1.46-.03-.46,0-1,.02-1.42.04Z" style="fill: #24272b;"/>
          <path d="M100.18,75.57c.83,0,1.5,1.06,1.5,2.36s-.68,2.36-1.5,2.36-1.5-1.05-1.5-2.36.68-2.36,1.5-2.36ZM100.18,75.83c-.63,0-.85.86-.85,2.1s.22,2.1.85,2.1.85-.86.85-2.1-.22-2.1-.85-2.1Z" style="fill: #24272b;"/>
          <path d="M102.12,80.19v-.21c.26-.38.6-.81.99-1.22.58-.61,1.25-1.32,1.26-2.1,0-.46-.3-.83-.81-.83-.32,0-.92.22-.92.68,0,.11.09.18.19.18.15,0,.3.18.3.41,0,.12-.14.38-.4.38-.28,0-.5-.3-.5-.67,0-.68.6-1.25,1.39-1.25.88,0,1.38.53,1.38,1.23,0,.54-.37,1.01-.73,1.33-.55.49-1.13.97-1.6,1.5,0,0,.23-.01.58-.01h1.03c.34,0,.45-.18.52-.79h.23c-.03.36-.05.69-.05,1.03v.34c-.47-.02-.97-.03-1.46-.03-.46,0-1,.02-1.42.04Z" style="fill: #24272b;"/>
          <path d="M106.07,79.04c.23,0,.36.23.36.42,0,.18-.13.2-.13.34,0,.18.29.23.42.23.72,0,1.15-.82,1.15-2.25v-.07c-.28.52-.72.74-1.11.74-.7,0-1.24-.54-1.24-1.34,0-.85.64-1.54,1.46-1.54,1.01,0,1.52,1.04,1.52,2.13,0,1.44-.68,2.56-1.8,2.56-.61,0-1.03-.32-1.03-.75,0-.28.19-.47.4-.47ZM106.97,75.82c-.54,0-.83.44-.83,1.2,0,.66.23,1.11.8,1.11.52,0,.85-.48.85-1.07s-.28-1.24-.82-1.24Z" style="fill: #24272b;"/>
        </g>
        <path d="M131.55,71.3l.91-.06v-3.27c0-.18-.08-.26-.25-.26h-.75v-.23c.54,0,1.16-.26,1.38-.47h.22c-.02.23-.05.83-.05,1.25v2.72c0,.2.07.26.21.26l.72.05v.26h-2.38v-.25Z" style="fill: #24272b;"/>
        <path d="M134.59,71.94c-.1.02-.12,0-.05-.08.57-.34.96-.69,1.16-1.03.26-.43.39-.93.39-1.5v-2.9l.39.23h1.99l.16-.21.36.26c.1.09.07.15-.1.18v4.42c0,.19-.06.34-.18.46-.1.1-.23.16-.39.16-.07,0-.1-.06-.1-.18,0-.07-.04-.11-.13-.13l-.44-.1c-.09-.05-.09-.09,0-.1h.67c.16,0,.23-.08.23-.23v-1.45h-2.12c-.07.57-.3,1.05-.7,1.45-.33.33-.71.58-1.14.75ZM136.43,66.82v1.32h2.12v-1.32h-2.12ZM136.43,68.3v1.29h2.12v-1.29h-2.12Z" style="fill: #24272b;"/>
        <path d="M131.73,79.9l.91-.06v-3.27c0-.18-.08-.26-.25-.26h-.75v-.23c.54,0,1.16-.26,1.38-.47h.22c-.02.23-.05.83-.05,1.25v2.72c0,.2.07.26.21.26l.72.05v.26h-2.38v-.25Z" style="fill: #24272b;"/>
        <path d="M134.76,80.54c-.1.02-.12,0-.05-.08.57-.34.96-.69,1.16-1.03.26-.43.39-.93.39-1.5v-2.9l.39.23h1.99l.16-.21.36.26c.1.09.07.15-.1.18v4.42c0,.19-.06.34-.18.46-.1.1-.23.16-.39.16-.07,0-.1-.06-.1-.18,0-.07-.04-.11-.13-.13l-.44-.1c-.09-.05-.09-.09,0-.1h.67c.16,0,.23-.08.23-.23v-1.45h-2.12c-.07.57-.3,1.05-.7,1.45-.33.33-.71.58-1.14.75ZM136.6,75.42v1.32h2.12v-1.32h-2.12ZM136.6,76.89v1.29h2.12v-1.29h-2.12Z" style="fill: #24272b;"/>
        <g>
          <path d="M157.81,71.6v-.21c.26-.38.6-.81.99-1.22.58-.61,1.25-1.32,1.26-2.1,0-.46-.3-.83-.81-.83-.32,0-.92.22-.92.68,0,.11.09.18.19.18.15,0,.3.18.3.41,0,.12-.14.38-.4.38-.28,0-.5-.3-.5-.67,0-.68.6-1.25,1.39-1.25.88,0,1.38.53,1.38,1.23,0,.54-.37,1.01-.73,1.33-.55.49-1.13.97-1.6,1.5,0,0,.23-.01.58-.01h1.03c.34,0,.45-.18.52-.79h.23c-.03.36-.05.69-.05,1.03v.34c-.47-.02-.97-.03-1.46-.03-.46,0-1,.02-1.42.04Z" style="fill: #24272b;"/>
          <path d="M164.52,66.98c.64,0,1.03.38,1.03.77,0,.23-.13.46-.38.46-.23,0-.4-.17-.4-.38,0-.16.13-.27.13-.38,0-.17-.26-.21-.4-.21-.83,0-1.15,1.11-1.15,2.23v.08c.21-.45.64-.74,1.13-.74.75,0,1.23.64,1.23,1.33,0,.87-.67,1.56-1.43,1.56-1.09,0-1.58-1.05-1.58-2.2s.62-2.5,1.81-2.5ZM164.28,69.12c-.47,0-.85.39-.85,1.1,0,.78.36,1.21.87,1.21.57,0,.77-.63.77-1.22s-.26-1.09-.79-1.09Z" style="fill: #24272b;"/>
        </g>
        <g>
          <path d="M169.76,67.03h2.33l.15-.21.36.26c.1.09.07.15-.1.18v4.14c-.22.21-.34.22-.34.03v-.47h-2.46v.78c-.22.21-.34.22-.34.03v-5.02l.39.29ZM172.17,67.19h-2.46v1.63h2.46v-1.63ZM172.17,68.97h-2.46v1.84h2.46v-1.84Z" style="fill: #24272b;"/>
          <path d="M176.69,68.19c-.4.91-.8,1.83-1.22,2.74-.05.09-.13.26-.23.52-.05.14-.11.21-.18.21-.05,0-.1-.04-.13-.13-.02-.04-.03-.1-.03-.21,0-.16.05-.29.16-.39.1-.1.22-.29.36-.57.38-.74.72-1.45,1.01-2.12-.52.1-.85.19-.98.26-.1.05-.2.04-.28-.03-.17-.12-.26-.3-.26-.54.02-.05.04-.05.08,0,.09.19.22.28.41.28.12,0,.49-.05,1.11-.16.09-.19.17-.39.26-.59.09-.24.08-.42-.03-.54-.09-.1-.22-.16-.41-.18-.07-.03-.07-.07,0-.1.17,0,.29,0,.36.03.19.05.35.15.49.28.16.16.15.25-.03.29-.12.28-.25.54-.39.8.24-.04.41-.05.49-.05.22,0,.39.06.49.18.16.19.23.51.23.96,0,1.33-.32,2.16-.96,2.48-.17.09-.26.05-.26-.1,0-.12-.03-.21-.1-.26-.16-.12-.33-.25-.52-.39-.03-.07-.02-.09.05-.08.19.1.39.21.59.31.17.09.33.04.47-.16.15-.22.27-.5.34-.83.09-.41.13-.79.13-1.14,0-.31-.03-.52-.08-.62-.07-.14-.2-.21-.39-.21s-.38.02-.57.05ZM178.97,67.91c.29.12.6.31.93.57.43.34.67.77.72,1.27.02.17,0,.3-.08.39-.1.14-.21.13-.31-.03-.1-.17-.23-.25-.39-.23-.24.02-.49.03-.75.05-.1-.02-.11-.05-.03-.1.28-.03.57-.08.88-.13.12-.02.17-.07.16-.16-.04-.28-.16-.56-.39-.85-.21-.28-.47-.51-.8-.7-.09-.07-.07-.09.05-.08Z" style="fill: #24272b;"/>
          <path d="M184.79,69.02c.59,0,1.03.15,1.32.44.22.22.34.49.34.8,0,.34-.12.64-.36.88-.5.48-1.45.72-2.84.7-.1-.05-.1-.1,0-.16,1.26-.03,2.11-.28,2.56-.72.19-.19.28-.44.28-.75,0-.28-.07-.48-.21-.62-.28-.28-.62-.41-1.03-.41-.59,0-1.09.21-1.5.62-.26.26-.41.51-.47.75-.03.16-.11.2-.23.13-.19-.1-.28-.32-.26-.65.02-.43.06-.82.13-1.16.03-.19.05-.38.05-.57,0-.12-.03-.22-.08-.31-.05-.09-.04-.18.03-.29.14-.21.37-.34.7-.41.15-.04.36-.05.62-.05.03,0,.04-.02.03-.05-.02-.05-.08-.09-.18-.1-.38-.07-.66-.3-.85-.7.02-.05.04-.06.08-.03.21.26.57.44,1.09.54.33.07.51.24.54.52.02.16-.05.2-.21.13-.22-.1-.41-.16-.57-.16-.48,0-.82.1-1.01.29-.12.12-.12.24,0,.36.1.1.13.24.08.41-.1.35-.15.85-.13,1.53,0,.1.03.1.1,0,.6-.64,1.27-.96,1.99-.96Z" style="fill: #24272b;"/>
        </g>
        <rect x=".07" y="60.27" width="211.43" height=".14" style="fill: #24272b;"/>
        <path d="M74.3,60.42h.15v26.08h-.15v-26.08ZM.07,60.42h.15v26.08H.07v-26.08Z" style="fill: #24272b; fill-rule: evenodd;"/>
        <g>
          <path d="M14.82,92.66c.02.7.07,1.3.14,1.81h1.64l.42-.42.54.4c.11.09.11.16,0,.2h-2.57c.24,1.09.63,1.9,1.16,2.43.21.21.39.34.54.4.23.09.38.07.45-.08l.34-.88c.06-.08.08-.08.08,0l-.11.76c-.02.11,0,.24.03.37.04.09.06.17.06.23,0,.11-.12.17-.37.17-.43,0-.86-.21-1.27-.62-.62-.62-1.05-1.54-1.27-2.77h-2.01v2.37l2.18-.51c.11-.02.13.02.06.11l-2.74.9c.04.3-.04.38-.23.23l-.51-.51.88-.14v-4.52l.42.2c.98-.08,2.05-.3,3.22-.68l.51.28c.11.08.09.11-.06.11h-.37c-.09.02-.48.08-1.16.17ZM12.62,94.47h1.98c-.08-.49-.12-1.07-.14-1.75-.51.09-1.12.18-1.84.25v1.5Z" style="fill: #24272b;"/>
          <path d="M20.99,95.43c.19-.19.36-.37.51-.54-.09,0-.18-.08-.25-.23-.15-.28-.42-.54-.82-.76-.55.64-1.15,1.15-1.81,1.53-.09,0-.11-.04-.06-.11,1.13-.77,1.96-1.89,2.49-3.36l.51.23c.19.08.12.14-.2.2-.09.17-.19.33-.28.48h1.84l.17-.23.48.31c.13.13.06.2-.23.2-.64.96-1.33,1.77-2.06,2.43h2.37l.17-.23.4.28c.11.09.08.16-.11.2v2.15c-.25.23-.37.24-.37.03v-.31h-2.49v.54c-.25.23-.37.24-.37.03v-2.37c-.7.57-1.52.97-2.46,1.21-.09,0-.11-.04-.06-.11.92-.3,1.76-.79,2.52-1.47v-.14l.11.06ZM20.99,93.03c-.17.3-.34.56-.51.79.47.11.79.25.96.42.11.11.2.26.25.45.41-.47.82-1.03,1.22-1.67h-1.92ZM23.73,97.52v-1.78h-2.49v1.78h2.49Z" style="fill: #24272b;"/>
          <path d="M31.02,93.53c-.42,1.04-.92,1.9-1.53,2.6.85.74,1.79,1.25,2.83,1.55-.26.06-.49.19-.68.4-.92-.43-1.72-.99-2.4-1.67-.98.9-2.1,1.5-3.36,1.78-.08-.04-.08-.08,0-.11,1.36-.49,2.4-1.14,3.14-1.95-.55-.64-.98-1.69-1.3-3.14h-1.33v-.17h4.35l.17-.25.62.31c.11.09,0,.16-.34.2l-.17.45ZM27.91,93c.32,1.36.76,2.32,1.33,2.88.47-.57.91-1.36,1.33-2.37l.17-.51h-2.83Z" style="fill: #24272b;"/>
          <path d="M34.5,93.36s-.08.14-.14.31c-.38,1.07-.56,1.9-.56,2.49,0,.32.02.51.06.57s.08.05.11-.03c.21-.53.42-1.02.65-1.47.09-.02.12,0,.08.08-.19.43-.34.87-.45,1.3-.06.23-.08.41-.08.54,0,.21,0,.42.03.62.02.19-.05.28-.2.28-.09,0-.17-.08-.23-.25-.15-.45-.22-1.04-.2-1.75.02-.77.15-1.58.4-2.43.04-.13.06-.28.06-.45,0-.19-.11-.33-.34-.42-.09-.04-.09-.07,0-.08.17,0,.31.04.42.11.06.04.19.16.4.37.07.08.07.15,0,.23ZM38,96.95c-.06.3-.19.52-.4.65-.19.13-.44.2-.76.2-.41,0-.72-.09-.9-.28-.13-.13-.2-.28-.2-.45,0-.13.07-.25.23-.37.19-.13.48-.2.88-.2.32,0,.6.03.85.08,0-1.05-.02-1.87-.06-2.43-.66.09-1.23.14-1.7.14-.17,0-.31-.05-.42-.14-.23-.21-.36-.39-.4-.54-.02-.09,0-.11.08-.06.21.32.46.48.76.48.4,0,.94-.05,1.64-.14-.02-.47-.04-.79-.06-.96-.02-.21-.2-.32-.54-.34-.17,0-.18-.04-.03-.11.13-.06.28-.08.45-.06.19.02.37.08.54.2.07.06.07.13-.03.23-.04.04-.06.13-.06.28,0,.21,0,.44.03.71.57-.08.88-.13.93-.17.09-.06.19-.06.28,0,.09.06.16.1.2.14.06.08.03.12-.08.14-.45.08-.89.13-1.3.17.06.89.08,1.72.08,2.52.41.15.82.3,1.22.45.09.04.15.09.17.17.04.11.05.2.03.25-.04.11-.11.13-.23.06-.53-.32-.93-.53-1.22-.62ZM36.78,96.7c-.38,0-.63.07-.76.2-.06.06-.08.12-.08.2,0,.11.03.2.08.25.17.17.41.25.73.25.3,0,.51-.06.62-.17.17-.17.26-.36.28-.57-.28-.11-.58-.17-.88-.17Z" style="fill: #24272b;"/>
          <path d="M42.69,95.43c.19-.19.36-.37.51-.54-.09,0-.18-.08-.25-.23-.15-.28-.42-.54-.82-.76-.55.64-1.15,1.15-1.81,1.53-.09,0-.11-.04-.06-.11,1.13-.77,1.96-1.89,2.49-3.36l.51.23c.19.08.12.14-.2.2-.09.17-.19.33-.28.48h1.84l.17-.23.48.31c.13.13.06.2-.23.2-.64.96-1.33,1.77-2.06,2.43h2.37l.17-.23.4.28c.11.09.08.16-.11.2v2.15c-.25.23-.37.24-.37.03v-.31h-2.49v.54c-.25.23-.37.24-.37.03v-2.37c-.7.57-1.52.97-2.46,1.21-.09,0-.11-.04-.06-.11.92-.3,1.76-.79,2.52-1.47v-.14l.11.06ZM42.69,93.03c-.17.3-.34.56-.51.79.47.11.79.25.96.42.11.11.2.26.25.45.41-.47.82-1.03,1.22-1.67h-1.92ZM45.43,97.52v-1.78h-2.49v1.78h2.49Z" style="fill: #24272b;"/>
        </g>
        <path d="M48.78,92.09l.48.31c.15.09,0,.14-.42.14-.28.08-.56.14-.82.2v1.13h.51l.31-.31.4.28c.11.09.11.16,0,.2h-1.22v.79c.38.11.65.24.82.37.17.13.25.25.25.37s-.06.17-.17.17c-.06,0-.15-.09-.28-.28-.17-.21-.38-.37-.62-.48v3.19c-.25.23-.37.24-.37.03v-3.02c-.45.79-.89,1.38-1.3,1.78-.09.02-.11-.02-.06-.11.73-1.07,1.19-1.98,1.36-2.71v-.08h-1.27v-.17h1.27v-1.02c-.41.11-.85.21-1.3.28-.09-.02-.1-.06-.03-.11,1-.26,1.82-.58,2.46-.93ZM50.39,95.2c.13.13.04.19-.28.17-.55.94-1.06,1.56-1.55,1.87-.13.08-.15.04-.06-.11.62-.62,1.08-1.35,1.38-2.18l.51.25ZM50.5,92.46c-.15.43-.3.82-.45,1.16h1.87l.42-.42.54.4c.11.09.11.16,0,.2h-1.7v3.84c0,.21-.07.37-.2.48-.08.08-.17.11-.28.11-.08,0-.11-.05-.11-.14s-.06-.16-.17-.2l-.37-.06c-.08-.04-.08-.08,0-.11h.56c.13,0,.2-.07.2-.2v-3.73h-.85c-.36.58-.67,1.01-.93,1.27-.11.04-.14,0-.08-.08.57-.77.98-1.76,1.24-2.97l.62.23c.15.06.05.13-.31.23ZM52.42,96.47c-.17-.58-.42-1.02-.76-1.3-.09-.09-.08-.13.06-.11.17.09.36.23.57.4.43.38.65.75.65,1.13,0,.19-.08.28-.25.28-.09,0-.18-.13-.25-.4Z" style="fill: #24272b;"/>
        <g>
          <path d="M114.17,92.76c-.83,1.24-1.81,2.15-2.95,2.72-.09.02-.11-.02-.08-.1,1.26-.76,2.17-1.77,2.74-3.03l.57.18c.1.09.1.15,0,.18.79,1.16,1.75,1.92,2.87,2.3-.26.07-.44.18-.54.34-1.03-.59-1.87-1.45-2.51-2.59h-.1ZM112.44,95.7l.39.23h2.46l.18-.23.41.28c.14.1.08.17-.18.21v1.97c-.22.21-.34.21-.34.03v-.31h-2.59v.26c-.22.21-.34.22-.34.03v-2.46ZM112.67,94.98v-.15h2.17l.28-.29.36.26c.1.09.1.15,0,.18h-2.82ZM115.36,97.72v-1.63h-2.59v1.63h2.59Z" style="fill: #24272b;"/>
          <path d="M118.72,92.89h4.22l.16-.21.36.26c.1.09.07.15-.1.18v4.34c0,.21-.06.36-.18.46-.05.05-.16.1-.31.16-.1.03-.15-.02-.15-.16,0-.09-.04-.15-.13-.18l-.44-.08c-.09-.04-.09-.07,0-.1h.65c.16,0,.23-.08.23-.23v-4.29h-4.34v5.04c-.22.21-.34.22-.34.03v-5.46l.39.23ZM119.21,93.92h2.46l.39-.39.49.36c.1.09.1.15,0,.18h-3.34v-.16ZM121.9,95.24v1.68c-.22.21-.34.22-.34.03v-.34h-1.58v.62c-.22.21-.34.22-.34.03v-2.41l.39.16h1.45l.16-.21.36.26c.1.09.07.15-.1.18ZM121.57,96.45v-1.29h-1.58v1.29h1.58Z" style="fill: #24272b;"/>
          <path d="M127.21,92.34l.57.23c.09.14,0,.18-.26.13.66.84,1.62,1.5,2.9,1.97-.21.07-.36.19-.47.36-1.14-.59-1.98-1.34-2.53-2.28-.98,1.24-1.96,2.03-2.92,2.38-.09,0-.09-.03-.03-.1,1.14-.65,2.05-1.55,2.74-2.69ZM128.89,97.44c-.22-.22-.47-.44-.75-.65-.09-.07-.07-.09.05-.08.45.17.84.4,1.16.67.24.21.36.42.36.65,0,.17-.06.26-.18.26-.09,0-.16-.08-.23-.23-.05-.12-.16-.29-.31-.49l-3.52.36c-.1.33-.2.39-.28.18l-.26-.49,1.19-.03.52-1.47h-2.12v-.16h4.81l.34-.34.41.31c.1.09.1.15,0,.18h-3l-.78,1.45,2.59-.13ZM125.76,94.75h2.33l.28-.28.36.26c.1.09.1.15,0,.18h-2.97v-.16Z" style="fill: #24272b;"/>
          <path d="M132.48,94.88v.31c.71.17,1.06.41,1.06.72,0,.12-.04.18-.13.18-.07,0-.14-.04-.21-.13-.16-.24-.4-.46-.72-.65v2.87c-.22.21-.34.22-.34.03v-2.97c-.43.43-.81.74-1.14.93-.07,0-.09-.03-.05-.08.76-.66,1.41-1.44,1.97-2.35h-1.68v-.16h.91v-1.19l.44.08c.14.05.1.11-.1.18v.93h.39l.28-.28.41.41c.1.12.02.16-.26.13-.24.31-.52.66-.83,1.04ZM136.39,97.64l.39-.39.47.36c.07.09.04.15-.08.18h-4.19v-.16h1.84v-2.84h-1.45v-.16h1.45v-2.15l.47.08c.19.03.15.1-.13.21v1.86h1.03l.34-.34.41.31c.1.09.1.15,0,.18h-1.78v2.84h1.24Z" style="fill: #24272b;"/>
        </g>
        <path d="M139.81,97.45l.53-.03v-3.9c0-.11-.02-.23-.16-.24l-.54-.03v-.29h1.84v.29l-.56.03v3.93c0,.17.08.22.2.23.17.02.31.03.43.03.86,0,1.12-.39,1.34-1.55l.19.02-.06,1.69c0,.07-.05.11-.1.11h-3.11v-.29Z" style="fill: #24272b;"/>
        <rect x=".07" y="86.5" width="211.43" height=".14" style="fill: #24272b;"/>
        <path d="M74.3,86.65h.15v17.44h-.15v-17.44ZM.07,86.65h.15v17.44H.07v-17.44Z" style="fill: #24272b; fill-rule: evenodd;"/>
        <path d="M31.99,115.23v-.17h2.06c.23-.53.4-1.01.51-1.44l.59.28c.13.09.04.16-.28.2-.11.28-.25.6-.42.96h2.94l.42-.42.54.4c.11.09.11.16,0,.2h-3.99c-.21.49-.52,1.02-.93,1.58v3.25c-.25.23-.37.24-.37.03v-2.83c-.4.41-.76.73-1.1.96-.15.08-.18.05-.08-.08.43-.41.83-.88,1.19-1.38v-.54l.28.14c.21-.3.41-.68.62-1.13h-1.98ZM37.1,117.21l.42-.42.54.4c.11.09.11.16,0,.2h-1.89v2.18h1.3l.42-.42.54.4c.11.09.11.16,0,.2h-4.44v-.17h1.81v-2.18h-1.67v-.17h1.67v-1.7l.48.08c.15.09.11.16-.11.2v1.41h.93Z" style="fill: #24272b;"/>
        <path d="M63.97,115.77l.45.31c.11.09.11.16,0,.2h-1.19v2.43l.96-.25c.17,0,.19.04.06.11l-1.92.74c-.08.32-.16.39-.25.2l-.23-.45,1.02-.23v-2.54h-.93v-.17h.93v-2.01l.48.08c.15.09.11.16-.11.2v1.72h.4l.34-.34ZM63.92,117.49l-.11-.17.9-.51v-2.26l.51.08c.21.08.16.15-.14.23v1.75l.9-.51v-2.12l.51.08c.21.08.16.15-.14.23v1.61l1.02-.59.14-.31.51.23c.15.11.08.19-.2.23v2.18c0,.21-.07.37-.2.48-.08.08-.17.11-.28.11-.08,0-.11-.04-.11-.11,0-.09-.06-.16-.17-.2l-.37-.08c-.08-.04-.08-.08,0-.11h.56c.13,0,.2-.07.2-.2v-2.01l-1.1.62v2.6c-.25.23-.37.24-.37.03v-2.43l-.9.51v2.66c0,.08.04.11.11.11h2.37c.19,0,.3-.09.34-.28l.2-1.07s.07-.04.08,0v1.13c0,.09.04.17.11.23.11.09.1.18-.03.25-.09.06-.24.08-.42.08h-2.8c-.23,0-.34-.11-.34-.34v-2.57l-.79.45Z" style="fill: #24272b;"/>
        <g>
          <path d="M87.71,111.41h-1.24v-.16h1.24v-1.4l.47.08c.17.05.13.12-.13.21v1.11h.57l.34-.34.41.31c.1.09.1.15,0,.18h-1.32v1.03c.79.29,1.19.58,1.19.85,0,.14-.05.21-.16.21-.07,0-.12-.03-.16-.08-.26-.41-.55-.71-.88-.88v3.03c-.22.22-.34.24-.34.05v-3c-.36.67-.77,1.25-1.22,1.73-.09.02-.1-.02-.05-.1.84-1.29,1.27-2.24,1.27-2.84ZM90.27,115.23c-.21,0-.31-.1-.31-.31v-4.94l.47.08c.17.05.13.12-.13.21v4.55c0,.07.03.1.1.1h1.29c.17,0,.27-.06.28-.18l.15-.8s.06-.03.08,0v.8c0,.09.03.15.1.18.12.05.12.13,0,.23-.05.05-.21.08-.47.08h-1.58Z" style="fill: #24272b;"/>
          <path d="M95.13,111.46v2.33c-.02.17-.1.3-.23.39-.05.03-.11.05-.18.05s-.1-.03-.1-.08c0-.07-.04-.13-.13-.18l-.1-.05s-.03-.06.03-.08h.28c.07,0,.1-.03.1-.1v-2.35h-.49v4.24c-.22.21-.34.21-.34.03v-4.27h-.47v2.71c-.22.21-.34.22-.34.03v-3.08l.39.18h.41v-1.37l.44.08c.14.09.1.15-.1.18v1.11h.41l.16-.21.36.26c.1.09.07.15-.1.18ZM97.61,115.16c0,.07.03.1.1.1h.7c.17,0,.27-.06.28-.18l.16-.8s.06-.04.08,0v.8c0,.09.03.15.1.18.12.05.12.13,0,.23-.05.05-.21.08-.47.08h-.98c-.21,0-.31-.1-.31-.31v-1.6h-.52c-.14,1.03-.76,1.73-1.86,2.09-.12.02-.15-.02-.08-.1.93-.38,1.46-1.04,1.58-1.99h-1.09v-.16h1.55v-1.42l.44.08c.14.09.1.15-.1.18v1.16h1.06l.34-.34.41.31c.1.09.1.15,0,.18h-1.4v1.5ZM95.59,112.36c-.05-.09-.03-.11.05-.08.43.26.65.5.65.72,0,.17-.06.26-.18.26-.05,0-.09-.02-.1-.05-.03-.07-.07-.17-.1-.31-.05-.16-.15-.34-.31-.54ZM98.03,110.19l.16-.21.36.26c.1.09.07.15-.1.18v1.6c-.22.21-.34.22-.34.03v-.16h-1.99v.16c-.22.21-.34.22-.34.03v-2.07l.39.18h1.86ZM98.1,110.35h-1.99v.62h1.99v-.62ZM96.11,111.12v.62h1.99v-.62h-1.99ZM98.05,112.24l.41.26c.05.07,0,.1-.18.1l-.65.75c-.07.05-.1.04-.1-.05l.52-1.06Z" style="fill: #24272b;"/>
          <path d="M99.81,111.05v-.15h2.61v-1.16l.47.08c.19.07.15.14-.13.21v.88h1.99l.39-.39.49.36c.1.09.1.15,0,.18h-5.82ZM102.42,112.11v-.93l.47.08c.19.07.15.14-.13.21v.65h1.71l.18-.23.41.28c.14.1.08.17-.18.21v2.09c0,.19-.06.34-.18.44-.07.07-.15.1-.26.1-.07,0-.1-.04-.1-.13s-.05-.15-.16-.18l-.34-.05c-.07-.03-.07-.07,0-.1h.52c.12,0,.18-.06.18-.18v-2.09h-1.78v3.26c-.22.21-.34.21-.34.03v-3.28h-1.58v2.66c-.22.21-.34.22-.34.03v-3.1l.39.26h1.53Z" style="fill: #24272b;"/>
          <path d="M112.2,110.58h-2.4v1.09h1.32l.15-.21.36.26c.1.09.07.15-.1.18v3.39c-.22.21-.34.22-.34.03v-.39h-3.8v.46c-.22.21-.34.22-.34.03v-4.01l.39.26h.96v-1.09h-2.02v-.16h4.94l.39-.39.49.36c.1.09.1.15,0,.18ZM109.46,111.82h-.72v.18c0,1.07-.45,1.85-1.34,2.35v.41h3.8v-2.95h-1.4v1.5c0,.07.03.1.1.1h.47c.16,0,.25-.06.28-.18l.16-.57s.06-.03.08,0v.57c0,.09.03.15.1.18.12.05.12.13,0,.23-.05.05-.21.08-.47.08h-.75c-.21,0-.31-.1-.31-.31v-1.6ZM108.4,111.82h-1.01v2.41c.67-.5,1.01-1.22,1.01-2.17v-.23ZM109.46,110.58h-.72v1.09h.72v-1.09Z" style="fill: #24272b;"/>
          <path d="M113.83,115.08v.44c-.22.21-.34.21-.34.03v-5.4l.57.36h3.7l.39-.39.49.36c.1.09.1.15,0,.18h-4.81v4.27h4.14l.39-.39.49.36c.1.09.1.15,0,.18h-5.02ZM116.28,112.93c-.59.72-1.23,1.24-1.94,1.55-.14.04-.16,0-.08-.08.74-.5,1.34-1.06,1.78-1.68-.62-.47-1.14-.81-1.55-1.04-.09-.07-.07-.1.05-.1.66.28,1.22.57,1.68.88.29-.43.54-.91.75-1.45l.47.31c.1.09.11.14.03.16h-.26c-.15.31-.4.7-.72,1.16.84.64,1.27,1.09,1.27,1.34,0,.16-.06.23-.18.23-.09,0-.17-.07-.26-.21-.31-.41-.66-.78-1.03-1.09Z" style="fill: #24272b;"/>
          <path d="M125.44,110.58h-2.4v1.09h1.32l.15-.21.36.26c.1.09.07.15-.1.18v3.39c-.22.21-.34.22-.34.03v-.39h-3.8v.46c-.22.21-.34.22-.34.03v-4.01l.39.26h.96v-1.09h-2.02v-.16h4.94l.39-.39.49.36c.1.09.1.15,0,.18ZM122.7,111.82h-.72v.18c0,1.07-.45,1.85-1.34,2.35v.41h3.8v-2.95h-1.4v1.5c0,.07.03.1.1.1h.47c.16,0,.25-.06.28-.18l.16-.57s.06-.03.08,0v.57c0,.09.03.15.1.18.12.05.12.13,0,.23-.05.05-.21.08-.47.08h-.75c-.21,0-.31-.1-.31-.31v-1.6ZM121.64,111.82h-1.01v2.41c.67-.5,1.01-1.22,1.01-2.17v-.23ZM122.7,110.58h-.72v1.09h.72v-1.09Z" style="fill: #24272b;"/>
          <path d="M128.88,110.84h2.51l.39-.39.49.36c.1.09.1.15,0,.18h-1.45v3.98c0,.21-.06.36-.18.46-.1.09-.21.14-.31.16-.1.02-.16-.03-.16-.16,0-.09-.04-.15-.13-.18l-.41-.08c-.09-.03-.09-.07,0-.1h.62c.15,0,.23-.08.23-.23v-3.85h-1.6v3.1c-.22.21-.34.22-.34.03v-.29h-1.78v.6c-.22.21-.34.21-.34.03v-4.29l.39.26h1.65l.16-.21.36.26c.1.09.07.15-.1.18v.18ZM127.48,112v-1.42h-.72v1.42h.72ZM127.48,113.68v-1.53h-.72v1.53h.72ZM128.54,112v-1.42h-.72v1.42h.72ZM128.54,112.16h-.72v1.53h.72v-1.53Z" style="fill: #24272b;"/>
          <path d="M134.77,111.67h-1.73v-.16h1.73v-1.63l.44.08c.14.09.1.15-.1.18v5.35c-.22.21-.34.22-.34.03v-1.91c-.45.24-.92.48-1.42.72-.02.28-.09.33-.21.15l-.28-.39c.67-.21,1.31-.42,1.91-.65v-1.78ZM136.45,115.44c-.21,0-.31-.1-.31-.31v-5.28l.44.08c.14.09.1.15-.1.18v2.2c.55-.38,1.12-.8,1.71-1.27l.28.23c.28.19.22.27-.15.23-.62.36-1.23.68-1.84.96v2.56c0,.07.03.1.1.1h1.42c.17,0,.28-.09.31-.26l.18-.85s.06-.03.08,0v.91c0,.09.03.16.1.21.1.09.09.16-.03.23-.09.05-.22.08-.39.08h-1.81Z" style="fill: #24272b;"/>
          <path d="M142.48,112.47h1.94l.39-.39.49.36c.1.09.1.15,0,.18h-2.82v2.92c-.26.26-.39.27-.39.03v-2.95h-2.64v-.16h2.64v-2.43l.41.05c.31.07.3.15-.03.23v2.15Z" style="fill: #24272b;"/>
          <path d="M151.4,115.26c-.22.21-.34.21-.34.03v-.21h-4.16v.18c-.22.21-.34.21-.34.03v-5.12l.39.21h4.06l.16-.18.34.23c.1.09.07.15-.1.18v4.66ZM148.04,110.53h-1.14v4.4h4.16v-4.4h-1.55v2.82c0,.07.03.1.1.1h.62c.09,0,.15-.07.18-.21l.1-.52c.02-.05.04-.05.08,0v.57c0,.09.03.15.1.18.09.05.09.12,0,.21-.09.05-.18.08-.28.08h-.93c-.21,0-.31-.1-.31-.31v-2.92h-.8v1.58c0,.83-.41,1.54-1.22,2.15-.09.04-.11,0-.08-.08.64-.69.96-1.35.96-1.99v-1.66Z" style="fill: #24272b;"/>
          <path d="M152.75,110.63h4.78l.39-.39.49.36c.1.09.1.15,0,.18h-2.56v4.24c0,.24-.1.4-.31.49-.28.12-.41.1-.41-.05,0-.1-.05-.17-.16-.21l-.47-.08c-.07-.03-.07-.07,0-.1h.7c.16,0,.24-.06.26-.18v-4.11h-2.72v-.16Z" style="fill: #24272b;"/>
          <path d="M160.95,110.43h2.53l.15-.21.36.26c.1.09.07.15-.1.18v4.6c-.22.21-.34.21-.34.03v-.46h-2.66v.65c-.22.21-.34.21-.34.03v-5.33l.39.26ZM163.56,111.77v-1.19h-2.66v1.19h2.66ZM163.56,111.93h-2.66v1.21h2.66v-1.21ZM160.89,113.3v1.37h2.66v-1.37h-2.66Z" style="fill: #24272b;"/>
        </g>
        <path d="M169.05,114.91l.91-.06v-3.27c0-.18-.08-.26-.25-.26h-.75v-.23c.54,0,1.16-.26,1.38-.47h.22c-.02.23-.05.83-.05,1.25v2.72c0,.2.07.26.21.26l.72.05v.26h-2.38v-.25Z" style="fill: #24272b;"/>
        <path d="M176.31,111.98c-.9.83-1.82,1.45-2.77,1.86-.1.02-.12-.02-.05-.1.95-.5,1.74-1.1,2.38-1.81h-2.22v-.16h1.58c-.1-.36-.27-.66-.49-.88-.02-.05,0-.07.05-.05.34.15.58.33.7.52.1.17.11.31.03.41h.8v-1.22l-2.04.18c-.1-.02-.1-.06,0-.13,1.52-.17,2.83-.39,3.93-.65l.28.21c.26.16.17.22-.26.18l-1.58.18v1.24h.65l.49-1.14.39.21c.22.1.17.17-.16.21l-.59.72h1.22l.39-.39.49.36c.1.09.1.15,0,.18h-2.66c.76.74,1.67,1.2,2.74,1.37-.21.09-.34.22-.39.39-1-.31-1.85-.9-2.53-1.76h-.03v1.27c-.22.21-.34.22-.34.03v-1.24ZM178.35,113.76v1.68c-.22.21-.34.22-.34.03v-.16h-3v.31c-.22.21-.34.21-.34.03v-2.28l.39.16h2.87l.16-.21.36.26c.1.09.07.15-.1.18ZM176.31,114.3v-.62h-1.29v.62h1.29ZM175.01,115.16h1.29v-.7h-1.29v.7ZM176.64,114.3h1.37v-.62h-1.37v.62ZM176.64,115.16h1.37v-.7h-1.37v.7Z" style="fill: #24272b;"/>
        <g>
          <path d="M112.42,120.36c0,1.4,0,2.27.03,2.61.02.34-.07.59-.26.72-.12.09-.21.13-.26.13s-.08-.05-.08-.15-.04-.2-.13-.29c-.31-.29-.56-.52-.75-.67-.05-.07-.03-.09.08-.08.29.19.57.37.83.54.14.09.22.05.23-.1v-2.71c-.36.03-.73.07-1.11.1-.31.05-.51.09-.59.13-.03.04-.1.05-.18.05-.07,0-.16-.05-.28-.16-.24-.21-.34-.36-.28-.46,0-.09.03-.09.1-.03.09.17.27.26.54.26.33,0,.93-.03,1.81-.08v-.72c0-.22-.14-.39-.41-.49-.07-.03-.07-.07,0-.1.16,0,.27,0,.34.03.38.1.57.21.57.31,0,.05-.03.09-.1.1-.05,0-.08.07-.08.21v.67c.36-.04.76-.06,1.19-.08.33-.02.54-.08.65-.18.17.05.32.13.44.23.09.07.13.14.13.21,0,.05-.05.06-.16.03-.4-.05-1.15-.06-2.25-.03ZM110.61,122.28c-.21.38-.39.65-.54.8-.07.09-.14.13-.21.13-.1,0-.16-.09-.18-.26,0-.07.05-.16.16-.26.24-.19.47-.46.67-.8.16-.26.28-.52.39-.78.07-.1.11-.1.13,0-.1.45-.24.84-.41,1.16ZM114.05,121.71c.22.21.39.4.49.57.12.19.18.34.18.46-.02.22-.1.34-.23.34-.07,0-.15-.15-.23-.44-.03-.12-.15-.34-.34-.65-.16-.22-.41-.48-.75-.78-.05-.03-.03-.06.05-.08.29.14.57.33.83.57Z" style="fill: #24272b;"/>
          <path d="M118.65,119.82c.29,0,.75-.03,1.37-.08.07-.05.15-.12.23-.21.16.1.28.19.39.26.09.07.13.13.13.18s-.05.08-.16.08c-.1-.02-.17.03-.21.13-.72,1.79-1.96,3.05-3.7,3.78-.1,0-.12-.04-.05-.1,1.72-.95,2.85-2.25,3.39-3.91-.55.02-1.05.04-1.5.05-.36.71-1.01,1.33-1.94,1.86-.09,0-.1-.03-.05-.1.91-.67,1.53-1.42,1.84-2.25.07-.19.09-.32.05-.39-.03-.07-.11-.12-.23-.16-.07-.03-.07-.07,0-.1.1-.03.28.02.52.16.19.1.28.19.28.26,0,.05-.04.08-.13.08-.03,0-.06.04-.08.1-.05.12-.1.24-.15.36Z" style="fill: #24272b;"/>
          <path d="M124.42,121.27c0,.05-.02.09-.05.13-.03.04-.08.05-.13.05-.07,0-.16-.08-.28-.23-.21-.26-.5-.44-.88-.54-.1-.05-.1-.09,0-.1.52,0,.91.13,1.19.39.1.1.16.21.16.31ZM128.38,120.05c.1-.05.15-.03.13.08-.84,1.07-2.01,2.11-3.49,3.13-.26.17-.41.29-.44.36-.04.07-.08.1-.13.1-.03,0-.13-.04-.28-.13-.12-.07-.22-.15-.31-.23-.14-.14-.2-.33-.18-.57,0-.09.03-.09.1-.03.09.26.22.39.39.39.16,0,.36-.07.62-.21,1.43-.86,2.63-1.83,3.59-2.9ZM124.73,119.87c-.19-.28-.49-.46-.9-.54-.07-.05-.06-.09.03-.1.53,0,.92.12,1.16.36.12.12.18.23.18.34,0,.12-.07.18-.21.18-.07,0-.16-.08-.26-.23Z" style="fill: #24272b;"/>
          <path d="M130.45,123.03c.21,0,.77-.29,1.68-.88.91-.59,1.83-1.32,2.74-2.2.12-.05.16-.02.1.1-1.19,1.33-2.59,2.44-4.22,3.34-.02.07-.03.12-.05.16-.02.04-.05.05-.1.05-.07,0-.21-.09-.41-.28-.24-.22-.35-.45-.31-.67,0-.09.03-.1.1-.05.12.29.28.44.47.44ZM130.94,120.62c-.1,0-.18-.11-.23-.34-.03-.14-.15-.31-.34-.52-.1-.1-.25-.22-.44-.36-.09-.07-.07-.09.05-.08.45.14.77.31.96.52.17.19.26.36.26.52,0,.17-.09.26-.26.26Z" style="fill: #24272b;"/>
          <path d="M137.56,121.22v1.5c0,.28.14.41.41.41h1.09c.31-.02.57-.06.78-.13.1-.07.19-.1.26-.1.12.05.22.1.28.16.07.05.1.11.1.18,0,.04-.05.06-.16.08-.14.02-.31.03-.52.05-.19.02-.43.03-.72.05h-1.16c-.45,0-.67-.22-.67-.65v-3.05c0-.17-.14-.28-.41-.34-.1-.04-.1-.08,0-.13.14-.02.29,0,.47.05.19.05.34.13.44.23.05.05.08.1.08.13s-.04.06-.1.08c-.09.02-.14.14-.16.36v.93c.86-.19,1.56-.42,2.09-.7.09-.09.03-.18-.16-.28-.05-.03-.03-.06.05-.08.21.02.4.1.59.26.17.14.26.23.26.28s-.07.07-.21.05c-.14.03-.27.07-.39.1-.76.26-1.51.44-2.25.54ZM141.08,120c0,.12-.05.18-.16.18-.07,0-.18-.12-.34-.36-.07-.1-.24-.27-.52-.49-.03-.04-.03-.06.03-.08.24.07.49.19.75.36.16.1.23.23.23.39ZM141.62,119.59c-.09,0-.16-.05-.21-.15-.09-.17-.31-.34-.67-.52-.05-.05-.04-.08.03-.08.4.05.67.14.83.26.1.09.16.2.16.34,0,.1-.04.15-.13.15Z" style="fill: #24272b;"/>
          <path d="M142.37,123.65c-.09.02-.11,0-.08-.08.84-.83,1.39-1.83,1.63-3,.02-.19,0-.3-.03-.34-.05-.05-.13-.09-.23-.1-.09-.04-.09-.07,0-.1.28-.02.53.05.75.21.1.07.15.14.15.21,0,.05-.07.08-.21.08-.33,1.29-.99,2.34-1.99,3.13ZM145.14,122.82s.07-.07.21-.1v-2.77c-.02-.16-.05-.28-.1-.36-.03-.05-.14-.09-.31-.13-.09-.05-.1-.09-.03-.13.33,0,.59.06.8.18.1.07.16.13.16.18,0,.07-.07.14-.21.21v2.72c1.03-.45,1.94-1.08,2.72-1.89.09-.04.12,0,.1.08-.5.66-1.19,1.27-2.07,1.84-.47.26-.7.42-.7.49,0,.09-.03.13-.08.13s-.13-.05-.23-.16c-.17-.17-.26-.27-.26-.28Z" style="fill: #24272b;"/>
        </g>
        <path d="M152.65,122.23c.2,0,.36.23.36.38,0,.38-.37.32-.37.54,0,.32.41.48.88.48.54,0,.89-.33.89-1.06,0-.65-.25-1.06-.89-1.06-.11,0-.21.06-.31.06-.12,0-.21-.08-.21-.17,0-.11.11-.17.19-.17.17,0,.12.05.36.05.5,0,.75-.39.75-1,0-.49-.22-.85-.71-.85-.46,0-.77.19-.77.4,0,.17.27.2.27.46,0,.17-.17.36-.34.36-.28,0-.38-.23-.38-.5,0-.56.56-.99,1.3-.99.78,0,1.23.46,1.23,1.06,0,.46-.24.93-.84,1.12v.04c.71.13,1,.68,1,1.17,0,.78-.7,1.33-1.53,1.33s-1.34-.46-1.34-1.09c0-.34.19-.56.46-.56Z" style="fill: #24272b;"/>
        <path d="M158.69,123.05c-.09,0-.13-.05-.13-.16,0-.09-.05-.15-.16-.18l-.16-.08c-.07-.07-.06-.1.03-.1l.26.08c.14.03.24,0,.31-.08.09-.1.14-.26.16-.46.02-.5-.19-1.02-.62-1.55l.44-1.42h-.83v5.17c-.22.21-.34.21-.34.03v-5.53l.39.18h.78l.1-.15.36.18c.17.09.15.15-.08.18l-.7,1.34c.57.62.85,1.17.85,1.66,0,.31-.09.54-.26.7-.16.14-.29.21-.41.21ZM159.23,121.11l.57-.1v-2.53l.44.08c.14.09.1.15-.1.18v.96h.54l.28-.28.36.26c.1.09.1.15,0,.18h-1.19v1.09l1.09-.31c.12,0,.13.04.03.13l-1.45.57c-.1.29-.2.34-.28.16l-.28-.36ZM161.02,121.19l.39.08c.14.09.1.15-.1.18l-.28.57h1.27l.15-.21.36.26c.1.09.07.15-.1.18v1.91c-.22.21-.34.21-.34.03v-.21h-1.99v.29c-.22.21-.34.21-.34.03v-2.46l.39.18h.44l.15-.83ZM160.37,122.9h1.99v-.72h-1.99v.72ZM160.37,123.83h1.99v-.78h-1.99v.78ZM161.9,120.08v.8c0,.07.03.1.1.1h.98c.09,0,.15-.07.18-.21l.1-.54s.06-.04.08,0v.59c0,.07.04.13.13.18.09.05.09.11,0,.18-.09.07-.19.1-.31.1h-1.29c-.21,0-.31-.1-.31-.31v-2.56l.44.08c.14.09.1.15-.1.18v1.29c.53-.47.88-.78,1.03-.93l.31.23c.12.14.07.18-.16.13l-1.19.67Z" style="fill: #24272b;"/>
        <g>
          <path d="M167.67,122.23c.2,0,.36.23.36.38,0,.38-.37.32-.37.54,0,.32.41.48.88.48.54,0,.89-.33.89-1.06,0-.65-.25-1.06-.89-1.06-.11,0-.21.06-.31.06-.12,0-.21-.08-.21-.17,0-.11.11-.17.19-.17.17,0,.12.05.36.05.5,0,.75-.39.75-1,0-.49-.22-.85-.71-.85-.46,0-.77.19-.77.4,0,.17.27.2.27.46,0,.17-.17.36-.34.36-.28,0-.38-.23-.38-.5,0-.56.56-.99,1.3-.99.78,0,1.23.46,1.23,1.06,0,.46-.24.93-.84,1.12v.04c.71.13,1,.68,1,1.17,0,.78-.7,1.33-1.53,1.33s-1.34-.46-1.34-1.09c0-.34.19-.56.46-.56Z" style="fill: #24272b;"/>
          <path d="M173.05,123.46l.42-.03c.13,0,.21-.03.21-.14,0-.03,0-.08-.03-.13l-.35-.94h-1.73l-.21.56c-.03.08-.05.17-.05.26,0,.23.14.42.65.42v.29h-1.55v-.29c.28-.03.43-.21.56-.55l1.53-4.01h.26l1.6,4.29c.09.22.17.25.36.26h.32v.3h-1.99v-.29ZM171.68,121.9h1.49l-.75-2.01-.74,2.01Z" style="fill: #24272b;"/>
        </g>
        <rect x=".07" y="104.09" width="211.43" height=".14" style="fill: #24272b;"/>
        <rect x=".07" y="129.95" width="70.48" height=".14" style="fill: #24272b;"/>
        <rect x="74.31" y="104.23" width=".14" height="25.87" style="fill: #24272b;"/>
        <rect x="70.69" y="129.95" width="140.81" height=".14" style="fill: #24272b;"/>
        <rect x="53.46" y="43.45" width=".14" height=".14" style="fill: #24272b;"/>
      </g>
      <rect x="210.83" y="25.34" width=".14" height="105.02" style="fill: #24272b;"/>
    </g>
  </g>
</svg>