<?xml version="1.0" encoding="UTF-8"?>
<svg id="_レイヤー_2" data-name="レイヤー_2" xmlns="http://www.w3.org/2000/svg" viewBox="0 0 358.69 478.67">
  <g id="_レイヤー_1-2" data-name="レイヤー_1">
    <g>
      <g>
        <g>
          <path d="M186.25,147.82c-3.1-2.21-5.83-2.11-9.08-1.05-2.94.95-4.67,3.86-5.72,6.72-.58,1.5-1.05,3.16-2.2,4.31-1.42,1.45-4.3,2.46-4.67,4.41-.37,2.01,1.57,3.16,3.46,2.31,3.94-1.75,4.51-3.21,5.46-3.86,1.42-.95,3.62-.85,5.09-1.7,1.68-1.05,3.31-3.21,3.83-5.06l3.83-6.02v-.05Z" style="fill: #f0b37b;"/>
          <path d="M182.94,172.79c-.26,3.01-2.2,5.16-4.09,4.21-.52,1.8-3.78,3.26-4.99.9-1.52,1.35-3.88-1.55-3.94-3.66-.1-3.16-.21-3.36-.26-4.31-.05-2.21.52-4.51.89-5.97.52-2.06,1.26-3.91,2.52-5.67,3.25-4.56,5.77-9.58,11.18-11.58,2.26,1,4.41,2.36,5.67,6.57.89,3.11-.16,5.46-1.68,8.37-1.52,2.86-1.89,3.96-1.94,7.17-.1,4.36-2.78,5.16-3.31,4.01l-.05-.05Z" style="fill: #f0b37b;"/>
        </g>
        <path d="M198.05,57.18c-3.15,9.58-4.3,28.18-6.14,45.92-9.92,22.86-.26,7.82-15.11,42.01-1.21,6.12,12.33,10.33,15.01,6.12,12.65-19.15,16.95-19.05,27.24-42.96,4.67-16.04,6.04-25.27,9.81-48.03,4.72-26.42-22.62-27.07-30.81-3.11v.05Z" style="fill: #10495b;"/>
        <path d="M208.39,128.62c-.42-18.8.21-37.6,1.68-56.4-2.57,7.82-5.62-5.67-8.19,2.16-.84,2.51-4.67,43.16-5.2,46.02-1.05,5.78-2.08,11.55-3.1,17.3-.52,2.76-1.05,5.46-1.31,8.22-.21,1.75-.26,3.46-.37,5.16l16.48-22.46Z" style="fill: #1b1d1b; isolation: isolate; opacity: .3;"/>
        <path d="M229.33,311.71l1.47,12.83c2.05,3.51,2.78,8.97,2.94,14.94-2.26,5.21-29.02,16.9-36.16,16.74-13.38,0-13.01-11.23-8.82-13.99,14.22-9.43,18.53-16.44,18.53-16.44l-1.15-14.09h23.2Z" style="fill: #070001;"/>
        <path d="M206.71,171.18l-6.35,59.21c-.31,11.73-.79,23.71-1.1,34.99-.05,3.06-.16,6.02-.21,8.92,0,1.75-.05,3.46-.1,5.11,0,3.21-.05,6.27-.05,9.17h0c0,11.88.58,21.46,2.1,26.62,1.99,7.22,32.33,7.17,33.43-3.36.42-6.72.89-13.39,1.21-19.95.16-2.76.26-5.46.37-8.17.1-2.06.16-4.06.21-6.02.1-2.71.1-5.31.16-7.92.1-12.98-.68-24.77-3.1-34.19,5.62-19.15,8.24-37.65,8.34-55.7l-34.95-8.77.05.05Z" style="fill: #303030;"/>
        <path d="M241.66,387.56c5.2.1,20.78-6.12,29.81-11.43,3.36-2.06,5.77-3.91,6.4-5.31-.16-6.02-.89-11.43-2.94-14.94l-1.1-9.73-.37-3.16h-23.2l.52,6.42.63,7.67s-4.3,7.02-18.53,16.49c-4.2,2.81-4.57,13.99,8.82,13.99h-.05Z" style="fill: #070001;"/>
        <path d="M205.4,180.86c1.68,11.08,10.23,16.69,21.2,20.2l9.34,60.81c.89,11.68,1.78,23.66,2.62,34.89.26,3.06.52,6.02.73,8.92.16,1.75.31,3.41.47,5.11.26,3.16.63,6.22.89,9.12.68,5.92,1.36,11.23,2.2,15.69.84,4.46,1.73,8.07,2.78,10.58.58,1.5,2.47,2.56,5.04,3.16,4.78,1.15,11.97.7,17.84-1.1,1.94-.55,3.73-1.3,5.2-2.16,2.94-1.7,4.83-3.86,4.83-6.52-.26-6.72-.58-13.39-.89-20-.16-2.76-.31-5.46-.52-8.12-.1-2.06-.26-4.06-.42-6.02-.21-2.71-.42-5.36-.73-7.92-1.31-12.93-3.31-24.57-6.72-33.69,3.52-19.55,1.89-40.61,0-58.56,3.25-9.53,4.67-21.91,1.52-35.75l-.94-.25-10.65-2.56-52.16-12.48-1.05-.25c-.42,8.82-.1,16.64-.63,26.82l.05.05Z" style="fill: #3c3c3b;"/>
        <path d="M271.95,167.32s.16,6.02,0,8.22c-13.17,10.88-62.45-2.96-66.23-15.94.1-2.71-.37-5.31,0-8.87,12.49,16.29,50.9,24.82,66.18,16.59h.05Z" style="fill: #070001;"/>
        <polygon points="220.25 169.03 228.86 172.28 228.86 167.22 220.25 163.96 220.25 169.03" style="fill: #efe584;"/>
        <path d="M204.51,147.47c0,2.46.94,4.76,2.52,6.87,8.13,10.68,33.59,17,49.8,17.25,2.78.1,5.3-.05,7.4-.4,2.41-.4,4.2-.95,5.62-1.8,3.94-2.41,4.67-6.97,5.77-14.84.94-8.37,1.78-16.09,2.47-23.16,3.1-32.74,3.31-51.44,2.52-58.51-7.35-8.32-20.15-17-30.81-23.51-14.43-6.22-27.34-10.03-35-9.22-20.83,2.36-10.34,107.29-10.34,107.29l.05.05Z" style="fill: #10495b;"/>
        <path d="M256.31,253.6c-.26,2.16-.58,4.31-.42,6.47.26,3.16,1.52,6.12,2.78,9.02,6.24,14.69,12.23,29.93,12.02,45.72-.1,5.56-.89,11.13-1.42,16.64-.37,3.86-.63,7.67-.73,11.53v5.31c.1,9.32,1.05,18.65,2.89,27.82,3.36-2.06,5.77-3.91,6.4-5.31-.16-6.02-.89-11.43-2.94-14.94l-1.1-9.73c2.94-1.7,4.83-3.86,4.83-6.52-.26-6.72-.58-13.39-.89-20-.16-2.76-.31-5.46-.52-8.12-.1-2.06-.26-4.06-.42-6.02-.21-2.71-.42-5.36-.73-7.92-1.31-12.93-3.31-24.57-6.72-33.69,3.52-19.55,1.89-40.61,0-58.56,3.25-9.53,4.67-21.91,1.52-35.75l-.94-.25c3.94-2.41,4.67-6.97,5.77-14.84.94-8.37,1.78-16.09,2.47-23.16-.26-.85-.52-1.65-.79-2.51-4.04-12.63-12.44-29.63-16.48-42.26-.84,14.89,3.1,36.05,3.1,50.99,0,9.07-.58,19.45-4.72,29.23-.63,1.6-1.42,3.21-2.36,4.76-1.05,2.06-2.41,4.01-3.94,5.97,3.73,4.76,4.57,11.08,5.04,17,1.63,19.65,1.05,39.51-1.68,59.06v.05Z" style="fill: #1b1d1b; isolation: isolate; opacity: .3;"/>
        <path d="M295.4,202.11c0,1.55,0,3.11-.52,4.56-.42,1.05-1.1,1.96-1.73,2.81-1.73,2.31-3.41,4.61-5.14,6.92-.52.7-1.05,1.4-1.68,2.01-1.42,1.4-3.31,2.41-5.3,2.76-.63.1-1.31.15-1.78-.25-.26-.2-.42-.45-.52-.75-.52-1.35.31-2.81.89-4.16,1.05-2.51,1.15-5.26,1.05-7.97-.16-2.71-.52-5.36-.52-8.07.21,1.96.26,4.01-.47,5.87s-2.36,3.51-4.41,3.71c-.21,0-.42,0-.58-.05s-.21-.2-.31-.35c-.63-.95-.79-2.16-.42-3.21.26-.8.79-1.5,1.05-2.31.31-1,.21-2.06.16-3.11-.1-4.31,1.63-8.67,4.62-11.88.58-.6,1.21-1.2,1.94-1.65,1.73-1.05,3.88-1.3,5.93-1.3.47,0,.94,0,1.36.15.31.1.63.35.89.55,2.31,1.8,3.73,4.46,4.51,7.17.79,2.76.94,5.61,1,8.42v.15Z" style="fill: #f0b37b;"/>
        <path d="M260.24,97.74c1.21,9.98,8.13,27.37,14.01,44.32.73,24.77,3.2,8.62,4.25,45.62,2.47,5.26,15.53,4.61,17.16,1.65,3.36-22.41,6.4-27.32,5.56-53.19-2.57-16.49-6.04-27.97-12.28-50.23-6.98-25.97-31.54-13.29-28.76,11.78l.05.05Z" style="fill: #10495b;"/>
        <path d="M291.94,117.84c.89-2.06,1.05-4.51.37-6.57l-3.04-9.68c-1.31,1.5-2.78,2.81-4.3,3.81-1.57,1-3.25,1.75-5.04,2.21l3.1,9.73c.63,2.06,2.05,3.56,3.73,3.96l3.41.8,1.84-4.21-.05-.05Z" style="fill: #efe584;"/>
        <path d="M256.78,53.77c.52.95.16,2.01-.16,3.16-.94,3.36-2.89,5.36-5.67,7.57-4.3,3.36-9.6,6.27-14.17,9.27-2.52-4.61-3.83-7.62-5.41-12.03-2.41,2.16-6.51,4.96-8.97,7.12-.47-3.66,1.05-8.42,1.89-12.03.79-3.61,2.78-7.12,6.04-9.12,2.83-1.75,6.3-2.31,9.66-2.11,2.41.15,9.08-2.81,11.81,1.35,1.1,1.7,3.99,5.11,4.99,6.87v-.05Z" style="fill: #0b3c4d;"/>
        <g>
          <path d="M214.9,19.78c-.05,8.07.63,16.14,2.2,24.06.42,2.31,1,4.61,2.47,6.52.26.3.52.6.79.8,1.47,1.35,3.57,2.11,6.19,1.7h.05c.05,1.15.37,4.01.37,4.81.16.85.52,1.5,1,2.06.26.3.58.6.89.8,3.73,2.61,11.7.7,16.64-1.55,2.62-1.2,5.93-3.01,6.24-6.47.1-1.2.1-10.08.37-11.23,1.21-5.31,2.1-4.21,3.36-12.83.63-4.46,1.21-10.58-.37-14.84-1.63-4.56-3.31-7.97-7.19-10.53-5.67-3.71-12.96-3.71-19.57-1.91-3.41.9-6.82,2.16-9.24,4.56-3.57,3.61-4.09,9.02-4.15,13.99l-.05.05Z" style="fill: #f0b37b;"/>
          <path d="M226.6,52.87c0,1.05.37,3.96.37,4.81.26,1.3.94,2.26,1.89,2.86.42,0,.89,0,1.31-.05,4.25-.5,8.29-2.56,11.02-5.67,2.73-3.11,4.25-7.27,3.99-11.33-3.36,4.51-8.55,7.67-14.22,8.67-1.57.3-2.78.45-4.36.7Z" style="fill: #1b1d1b; isolation: isolate; opacity: .15;"/>
        </g>
        <polygon points="204.93 85.9 217.47 92.17 217.31 87.41 204.77 81.09 204.93 85.9" style="fill: #fff;"/>
        <path d="M226.08,76.33c0,1,.79,2.16,1.73,2.61.89.45,1.63,0,1.57-.95,0-1-.79-2.16-1.73-2.61-.89-.45-1.63,0-1.57.95Z" style="fill: #0b3c4d;"/>
        <path d="M224.92,103.05c0,1,.79,2.16,1.73,2.61.89.45,1.63,0,1.57-.95,0-1-.79-2.16-1.73-2.61-.89-.45-1.63,0-1.57.95Z" style="fill: #0b3c4d;"/>
        <path d="M223.77,129.72c0,1,.79,2.16,1.73,2.61.89.45,1.63,0,1.57-.95,0-1-.79-2.16-1.73-2.61-.89-.45-1.63,0-1.57.95Z" style="fill: #0b3c4d;"/>
        <path d="M222.62,156.44c0,1,.79,2.16,1.73,2.61.89.45,1.63,0,1.57-.95,0-1-.79-2.16-1.73-2.61-.89-.45-1.63,0-1.57.95Z" style="fill: #0b3c4d;"/>
        <g>
          <g>
            <polygon points="237.68 183.71 237.68 163.36 248.28 169.23 248.28 189.53 237.68 183.71" style="fill: #3c3c3b;"/>
            <polygon points="237.68 163.36 241.77 161.25 252.42 167.12 248.28 169.23 237.68 163.36" style="fill: #3c3c3b;"/>
            <polygon points="248.28 189.53 252.42 187.47 252.42 167.12 248.28 169.23 248.28 189.53" style="fill: #070001;"/>
          </g>
          <path d="M241.09,152.83c.68-.4.84-.4,1.52,0,.37.2.52.45.52.7l.47,9.88s-.16.5-.52.7c-.68.4-1.78.4-2.47,0-.31-.2-.52-.45-.52-.7h0l.47-9.88s.16-.5.52-.7h0Z" style="fill: #070001;"/>
          <path d="M239.15,170.58c0,2.36,1.73,5.21,3.88,6.42,2.15,1.2,3.88.2,3.88-2.16s-1.73-5.21-3.88-6.42c-2.15-1.2-3.88-.2-3.88,2.16Z" style="fill: #070001;"/>
          <g>
            <path d="M239.88,177.3c0,.35.26.7.52.9l5.2,2.86c.31.15.52,0,.52-.3h0c0-.3-.26-.7-.52-.9l-5.2-2.86c-.31-.15-.52,0-.52.3h0Z" style="fill: #070001;"/>
            <path d="M239.88,179.65c0,.3.26.7.52.9l5.2,2.86c.31.15.52,0,.52-.3h0c0-.35-.26-.7-.52-.9l-5.2-2.86c-.31-.15-.52,0-.52.3h0Z" style="fill: #070001;"/>
            <path d="M239.88,182.01c0,.35.26.7.52.9l5.2,2.86c.31.15.52,0,.52-.3h0c0-.35-.26-.7-.52-.9l-5.2-2.86c-.31-.15-.52,0-.52.3h0Z" style="fill: #070001;"/>
          </g>
        </g>
      </g>
      <g>
        <polygon points="111.26 190.43 238.62 226.63 349.98 203.67 349.98 379.08 230.64 409.67 231.01 399.39 111.26 365.85 111.26 190.43" style="fill: #177784;"/>
        <path d="M269.27,380.74l30.23-16.64c9.08-5.01,23.83-5.01,32.9,0l10.81,5.97c4.57,2.51,6.82,5.77,6.82,9.07s-2.26,6.57-6.82,9.07l-40.3,22.26c-33.27,18.35-87.22,18.35-120.49,0l-64.34-35.49c-4.57-2.51-6.82-5.77-6.82-9.07s2.26-6.57,6.82-9.07l10.81-5.97c9.08-5.01,23.83-12.88,32.9-7.87l54.21,37.75c14.75,8.12,38.57,8.12,53.32,0h-.05Z" style="fill: #177784;"/>
        <path d="M269.27,205.32l30.23-16.64c9.08-5.01,23.83-5.01,32.9,0l10.81,5.97c4.57,2.51,6.82,5.77,6.82,9.07s-2.26,6.57-6.82,9.07l-40.3,22.26c-33.27,18.35-87.22,18.35-120.49,0l-64.34-35.49c-4.57-2.51-6.82-5.77-6.82-9.07s2.26-6.57,6.82-9.07l10.81-5.97c9.08-5.01,23.83-5.01,32.9,0l54.21,29.88c14.75,8.12,38.57,8.12,53.32,0h-.05Z" style="fill: #e16a3b;"/>
        <path d="M242.61,257.11c24.25,0,47.18-5.26,64.6-14.89l40.3-22.26c7.08-3.91,11.18-9.88,11.18-16.29s-4.09-12.38-11.18-16.29l-10.81-5.97c-5.72-3.16-13.07-4.86-20.83-4.86s-15.11,1.75-20.83,4.86l-30.23,16.64c-5.72,3.16-13.85,4.96-22.3,4.96s-16.58-1.8-22.3-4.96l-54.21-29.88c-5.72-3.16-13.07-4.86-20.83-4.86s-15.11,1.75-20.83,4.86l-10.81,5.97c-7.08,3.91-11.18,9.88-11.18,16.29s4.09,12.38,11.18,16.29l64.34,35.49c17.37,9.58,40.36,14.89,64.6,14.89h.16Z" style="fill: #3c3c3b;"/>
        <path d="M242.61,250.79c24.25,0,47.18-5.26,64.6-14.89l40.3-22.26c7.08-3.91,11.18-9.88,11.18-16.29s-4.09-12.38-11.18-16.29l-10.81-5.97c-5.72-3.16-13.07-4.86-20.83-4.86s-15.11,1.75-20.83,4.86l-30.23,16.64c-5.72,3.16-13.85,4.96-22.3,4.96s-16.58-1.8-22.3-4.96l-54.21-29.88c-5.72-3.16-13.07-4.86-20.83-4.86s-15.11,1.75-20.83,4.86l-10.81,5.97c-7.08,3.91-11.18,9.88-11.18,16.29s4.09,12.38,11.18,16.29l64.34,35.49c17.37,9.58,40.36,14.89,64.6,14.89h.16Z" style="fill: #9f9d9c;"/>
      </g>
      <g>
        <g>
          <rect x="47.76" y="454.49" width="53.11" height="9.53" style="fill: #9f9d9c;"/>
          <path d="M55.52,453.68c-10.39,5.72-10.39,14.99,0,20.71,10.39,5.72,27.18,5.72,37.52,0,10.39-5.72,10.39-14.99,0-20.71-10.39-5.72-27.18-5.72-37.52,0Z" style="fill: #9f9d9c;"/>
          <path d="M55.52,444.16c-10.39,5.72-10.39,14.99,0,20.71s27.18,5.72,37.52,0c10.39-5.72,10.39-14.99,0-20.71-10.39-5.72-27.18-5.72-37.52,0Z" style="fill: #424241;"/>
        </g>
        <g>
          <path d="M75.88,416.53l-5.93-9.78,46.23-25.52c9.6-5.31,17.74-18.75,17.74-29.38v-95.5c0-3.96-1.15-6.82-3.1-7.92-1.99-1.1-5.14-.6-8.76,1.4l-46.23,25.52-5.93-9.78,46.23-25.52c7.35-4.06,14.85-4.56,20.57-1.4s9.03,9.63,9.03,17.7v95.5c0,14.64-10.39,31.83-23.67,39.15l-46.23,25.52h.05Z" style="fill: #b2b2b2;"/>
          <path d="M128.42,445.51h0c-3.94,0-8.03-1.15-12.23-3.46l-92.52-51.04c-13.28-7.32-23.67-24.52-23.67-39.15v-95.5c0-13.64,8.71-19.75,17.37-19.75,3.94,0,8.03,1.15,12.23,3.46l92.52,51.04c13.28,7.32,23.67,24.52,23.67,39.15v95.5c0,5.61-1.52,10.43-4.46,13.94-3.15,3.76-7.71,5.82-12.91,5.82h0ZM17.42,247.94c-4.83,0-5.56,5.31-5.56,8.47v95.5c0,10.63,8.13,24.06,17.74,29.38l92.52,51.04c4.36,2.41,8.03,2.66,9.97.35,1.21-1.45,1.89-3.91,1.89-6.92v-95.5c0-10.63-8.13-24.06-17.74-29.38l-92.52-51.04c-2.31-1.25-4.46-1.96-6.3-1.96v.05Z" style="fill: #716f6f;"/>
          <path d="M74.26,459.15c-3.25,0-5.93-2.51-5.93-5.67v-216.88c0-3.11,2.62-5.67,5.93-5.67s5.93,2.51,5.93,5.67v216.88c0,3.11-2.62,5.67-5.93,5.67Z" style="fill: #716f6f;"/>
          <path d="M17.37,445.51c-2.99,0-5.83-.7-8.29-2.06C3.36,440.3.05,433.83.05,425.76v-95.5c0-14.64,10.39-31.83,23.67-39.15l46.23-25.52c2.83-1.55,6.45-.65,8.08,2.06,1.63,2.71.68,6.17-2.15,7.72l-46.23,25.52c-9.6,5.31-17.74,18.75-17.74,29.38v95.5c0,3.96,1.15,6.82,3.1,7.92,1.99,1.1,5.14.6,8.71-1.4l46.23-25.52c2.83-1.55,6.45-.65,8.08,2.06s.68,6.17-2.15,7.72l-46.23,25.52c-4.15,2.31-8.34,3.46-12.23,3.46h-.05Z" style="fill: #b2b2b2;"/>
        </g>
      </g>
    </g>
  </g>
</svg>